 <!DOCTYPE svg PUBLIC "-//W3C//DTD SVG 1.1//EN" "http://www.w3.org/Graphics/SVG/1.1/DTD/svg11.dtd">
<svg id="f8d417c8-2267-4b12-b9f0-49d2b77576cd" data-name="Layer 1" xmlns="http://www.w3.org/2000/svg" xmlns:xlink="http://www.w3.org/1999/xlink" width="865.76" height="682.89" viewBox="0 0 865.76 682.89">
<defs>
<clipPath id="b4d98677-a7ee-4554-8a60-2f0c3b87966a">
<path id="b1ff6932-f202-42fa-bc2f-3ed05c046698" data-name="SVGID" d="M577.85,380.48s-4.85,10.41,7.95,15.77,15.22,12.49,12.79,21.12l-2.07,3.57s-1.38-9.82-4.5-5.36.69,7.44,3.46,10.77,2.77,11.91-1.73,16.67-39.07,10.41-47,4.75-13.84-5.65-14.52-19.63,5.18-15.77,4.15-28.26-4.84-15.48-.35-24.7,22.83-26.49,27-30.06a5.37,5.37,0,0,1,4.75-1.54,2.14,2.14,0,0,1,1.56,2.59,1.93,1.93,0,0,1-.11.34c-1.82,4.21-6.42,15.6-7.23,25.12-.52,6.06,3.37,13.57,9.34,12.2S577.85,380.48,577.85,380.48Z" fill="none"/>
</clipPath>
<clipPath id="b13ddbb0-c262-4a5e-b151-05ef0aec4178">
<path id="f2dc8be1-0df0-4cc7-bd47-3c1594a9d5db" data-name="SVGID" d="M578.91,336.32s-4.23,2.08-3.43,4.51,4.44,10.26,4.44,15.48v9.5a96.83,96.83,0,0,0,4.45-17.9C585.17,340.32,581.39,334.55,578.91,336.32Z" fill="none"/>
</clipPath>
<clipPath id="a857b731-0bdf-4c92-a33d-f15383b6b74a">
<path id="f10716f7-d4a7-4dae-a6ce-845234910909" data-name="SVGID" d="M558.88,337.63s-2.28-11.19,1-19.31,3.9-12,2.93-15.38.42-4.77.42-4.77,7.69,4.47,8.37,12-3.91,9-7,14.56A102.36,102.36,0,0,0,558.88,337.63Z" fill="none"/>
</clipPath>
<style xmlns="http://www.w3.org/1999/xhtml">*, ::after, ::before { box-sizing: border-box; }
img, svg { vertical-align: middle; }
</style>
<style xmlns="http://www.w3.org/1999/xhtml">*, body, html { -webkit-font-smoothing: antialiased; }
img, svg { max-width: 100%; }
</style>
</defs>
<g id="e47c632b-42be-4930-a562-46a871379499" data-name="freepik--background-complete--inject-266">
<ellipse cx="505.14" cy="606.91" rx="219.9" ry="55.96" fill="#ebebeb"/>
<ellipse cx="505.14" cy="606.91" rx="186.14" ry="41.05" fill="#f5f5f5"/>
<ellipse cx="505.14" cy="606.91" rx="134.18" ry="25.35" fill="#ebebeb"/>
<ellipse cx="505.14" cy="606.91" rx="87.53" ry="13.48" fill="#f5f5f5"/>
<rect x="596.84" y="50.16" width="78.48" height="113.75" fill="#e0e0e0"/>
<rect x="592.91" y="50.16" width="78.48" height="113.75" fill="#f5f5f5"/>
<rect x="602.65" y="62.47" width="58.98" height="89.11" fill="#fff"/>
<path d="M661.64,151.6v-25c0-15.71,0-38-.09-64.17l.19.21H602.65l.22-.22v89.08l-.17-.18,42.93.09h.11l-43,.09h-.16V62.09h59.39v.19c0,26.29,0,48.56-.1,64.26v24.4A1.8,1.8,0,0,1,661.64,151.6Z" fill="#e0e0e0"/>
<path d="M671.67,50.16a14.14,14.14,0,0,1-1.46,2c-.9,1.21-2.2,2.92-3.68,4.67s-2.92,3.38-3.88,4.52a13.62,13.62,0,0,1-1.73,1.75,17.49,17.49,0,0,1,1.46-2l3.77-4.58,3.78-4.59A14.63,14.63,0,0,1,671.67,50.16Z" fill="#e0e0e0"/>
<path d="M662,151.31a72.86,72.86,0,0,0,10.22,12.86" fill="#fff"/>
<path d="M672.23,164.17a11.14,11.14,0,0,1-1.8-1.63,58.83,58.83,0,0,1-7.3-9.13,11,11,0,0,1-1.2-2.1,20.07,20.07,0,0,1,1.46,1.94c.86,1.21,2.07,2.92,3.49,4.64s2.78,3.33,3.77,4.38A17.88,17.88,0,0,1,672.23,164.17Z" fill="#e0e0e0"/>
<path d="M592.9,163.82l10.22-12.68" fill="#fff"/>
<path d="M603.18,151.14a78.26,78.26,0,0,1-5,6.47,78.54,78.54,0,0,1-5.3,6.21,75.67,75.67,0,0,1,5-6.47A76.2,76.2,0,0,1,603.18,151.14Z" fill="#e0e0e0"/>
<path d="M592.91,50.16a70.79,70.79,0,0,1,5,6,68.68,68.68,0,0,1,4.66,6.23,72.9,72.9,0,0,1-5-6A67.17,67.17,0,0,1,592.91,50.16Z" fill="#e0e0e0"/>
<rect x="623.52" y="80.56" width="19.74" height="56.08" fill="#e0e0e0"/>
<rect x="292.27" y="52.58" width="78.48" height="113.75" fill="#e0e0e0"/>
<polygon points="368.31 168.7 289.83 168.7 288.34 52.58 366.82 52.58 368.31 168.7" fill="#f5f5f5"/>
<rect x="298.09" y="64.9" width="58.98" height="89.11" fill="#fff"/>
<path d="M357.08,154v-25c0-15.71,0-38-.1-64.17l.2.21H298.09l.22-.22V154l-.17-.17,42.93.09h.1l-43,.08H298V64.69h59.4v.19c0,26.29-.08,48.56-.11,64.26v24.4Z" fill="#e0e0e0"/>
<path d="M367,52.58a14.72,14.72,0,0,1-1.46,2c-.92,1.22-2.21,2.92-3.7,4.68s-2.73,3.37-3.79,4.52a13.08,13.08,0,0,1-1.73,1.76,14.05,14.05,0,0,1,1.46-2L361.6,59l3.77-4.58A14,14,0,0,1,367,52.58Z" fill="#e0e0e0"/>
<path d="M357.37,153.73a73.37,73.37,0,0,0,10.3,12.87" fill="#fff"/>
<path d="M367.67,166.6a11.21,11.21,0,0,1-1.8-1.64,55.8,55.8,0,0,1-3.89-4.38,53.47,53.47,0,0,1-3.41-4.76,12.51,12.51,0,0,1-1.2-2.1,15.62,15.62,0,0,1,1.46,1.94c.86,1.21,2.09,2.92,3.5,4.64s2.78,3.33,3.77,4.38A17.06,17.06,0,0,1,367.67,166.6Z" fill="#e0e0e0"/>
<path d="M288.34,166.25l10.22-12.68" fill="#fff"/>
<path d="M298.6,153.57a77.53,77.53,0,0,1-5,6.47c-2.85,3.5-5.21,6.28-5.3,6.21a72.44,72.44,0,0,1,5-6.47A76.78,76.78,0,0,1,298.6,153.57Z" fill="#e0e0e0"/>
<path d="M288.34,52.58a69.35,69.35,0,0,1,5,6A74.38,74.38,0,0,1,298,64.78a66,66,0,0,1-5-6A70.6,70.6,0,0,1,288.34,52.58Z" fill="#e0e0e0"/>
<rect x="318.95" y="82.99" width="19.74" height="56.08" fill="#e0e0e0"/>
<rect x="59" y="20.02" width="198.84" height="488.06" fill="#ebebeb"/>
<rect x="72.39" y="36.26" width="172.05" height="75.57" fill="#e0e0e0"/>
<rect x="72.39" y="131.47" width="172.05" height="75.57" fill="#e0e0e0"/>
<rect x="72.39" y="226.69" width="172.05" height="75.57" fill="#e0e0e0"/>
<polygon points="74.28 110.74 74.1 94.69 82.85 94.69 83.14 110.74 74.28 110.74" fill="#ebebeb"/>
<path d="M82.32,97.53a29,29,0,0,1-4.06.15,29,29,0,0,1-4.06-.15,32.4,32.4,0,0,1,4.06-.13A32.34,32.34,0,0,1,82.32,97.53Z" fill="#e0e0e0"/>
<path d="M82.32,100a32.34,32.34,0,0,1-4.06.13A32.4,32.4,0,0,1,74.2,100a30.61,30.61,0,0,1,4.06-.13A30.55,30.55,0,0,1,82.32,100Z" fill="#e0e0e0"/>
<path d="M82.32,102.5a30.55,30.55,0,0,1-4.06.13,30.61,30.61,0,0,1-4.06-.13,27.57,27.57,0,0,1,4.06-.15A27.52,27.52,0,0,1,82.32,102.5Z" fill="#e0e0e0"/>
<path d="M82.32,105a26.21,26.21,0,0,1-4.06.14A26.25,26.25,0,0,1,74.2,105a30.61,30.61,0,0,1,4.06-.13A30.55,30.55,0,0,1,82.32,105Z" fill="#e0e0e0"/>
<path d="M82.32,107.45a30.55,30.55,0,0,1-4.06.13,30.61,30.61,0,0,1-4.06-.13,30.61,30.61,0,0,1,4.06-.13A30.55,30.55,0,0,1,82.32,107.45Z" fill="#e0e0e0"/>
<path d="M73.34,94.15h96.88a45.67,45.67,0,0,1,0,17.36H73.75v-1.18h5.84a2.79,2.79,0,0,0,2.79-2.79h0v-9.6a2.79,2.79,0,0,0-2.79-2.79H73.34Z" fill="#f5f5f5"/>
<path d="M166.88,111.83s-.13-4-.13-8.89,0-8.91.13-8.91.13,4,.13,8.91S167,111.83,166.88,111.83Z" fill="#fff"/>
<path d="M87.59,111.83s-.07-4-.07-8.89,0-8.91.13-8.91.15,4,.15,8.91S87.68,111.83,87.59,111.83Z" fill="#fff"/>
<path d="M168.57,111.83s-.13-4-.13-8.89,0-8.91.13-8.91.15,4,.15,8.91S168.66,111.83,168.57,111.83Z" fill="#fff"/>
<path d="M86.06,111.83c-.09,0-.14-4-.14-8.89s0-8.91.14-8.91.13,4,.13,8.91S86.06,111.83,86.06,111.83Z" fill="#fff"/>
<rect x="102.07" y="100.15" width="54.97" height="4.69" rx="2.32" fill="#fff"/>
<path d="M90.71,80V93.4h12.57V80Z" fill="#f5f5f5"/>
<path d="M159.81,78.84c2,4.75,1.68,10,0,15.54H90v-1H94.4a6.7,6.7,0,0,0,6.7-6.7h0A6.72,6.72,0,0,0,94.4,80H89.77V78.52Z" fill="#ebebeb"/>
<path d="M98.12,81s14,.13,31.21.13,31.21-.06,31.21-.13-14-.15-31.22-.15S98.12,80.93,98.12,81Z" fill="#fff"/>
<path d="M97.53,92.67s14,.13,31.38.13,31.38,0,31.38-.13-14-.14-31.38-.14S97.53,92.6,97.53,92.67Z" fill="#fff"/>
<path d="M90.71,86.87a47.83,47.83,0,0,0,5.22.15,48,48,0,0,0,5.23-.15c-1.74-.13-3.48-.17-5.23-.13S92.44,86.74,90.71,86.87Z" fill="#e0e0e0"/>
<path d="M90.71,89.9a39.94,39.94,0,0,0,4.77.14,40.17,40.17,0,0,0,4.78-.14,40.16,40.16,0,0,0-4.78-.13A39.94,39.94,0,0,0,90.71,89.9Z" fill="#e0e0e0"/>
<path d="M90.63,92.66a19.42,19.42,0,0,0,3.49.14,19.35,19.35,0,0,0,3.49-.14,22.59,22.59,0,0,0-3.49-.13A22.64,22.64,0,0,0,90.63,92.66Z" fill="#e0e0e0"/>
<path d="M90.6,84.16a44.65,44.65,0,0,0,5,.14,44.65,44.65,0,0,0,5-.14,47.12,47.12,0,0,0-5-.13A47.12,47.12,0,0,0,90.6,84.16Z" fill="#e0e0e0"/>
<path d="M90.71,81.44a27.91,27.91,0,0,0,3.88.13,28.25,28.25,0,0,0,3.9-.13,28.23,28.23,0,0,0-3.9-.1A29.53,29.53,0,0,0,90.71,81.44Z" fill="#e0e0e0"/>
<path d="M83.71,64.4V77.8h26V64.4Z" fill="#ebebeb"/>
<path d="M167.56,71.22v.36a7.69,7.69,0,0,1-7.72,7.2H82.5v-1h18.35a6.69,6.69,0,0,0,6.72-6.68h0a6.7,6.7,0,0,0-6.7-6.71H82.5V63l77.4.27A7.72,7.72,0,0,1,167.57,71,1.77,1.77,0,0,1,167.56,71.22Z" fill="#f5f5f5"/>
<path d="M83.71,71.28s5.34.14,11.93.14,11.92-.07,11.92-.14-5.33-.16-11.92-.16S83.71,71.2,83.71,71.28Z" fill="#e0e0e0"/>
<path d="M84.09,74.3s5,.15,11.27.15,11.29,0,11.29-.15-5.05-.13-11.29-.13S84.09,74.23,84.09,74.3Z" fill="#e0e0e0"/>
<path d="M83.71,77.07s4.54.14,10.22.14,10.14,0,10.14-.14-4.54-.14-10.14-.14S83.71,77,83.71,77.07Z" fill="#e0e0e0"/>
<path d="M83.71,68.56s5.23.15,11.68.15,11.69-.08,11.69-.15-5.23-.13-11.69-.13S83.71,68.49,83.71,68.56Z" fill="#e0e0e0"/>
<path d="M84.09,65.84s4.66.15,10.4.15,10.4-.07,10.4-.15-4.66-.13-10.4-.13S84.09,65.77,84.09,65.84Z" fill="#e0e0e0"/>
<rect x="106.92" y="85.25" width="44" height="2.44" rx="1.21" fill="#fff"/>
<rect x="115.71" y="69.93" width="44" height="2.44" rx="1.21" fill="#fff"/>
<path d="M187.48,182.56H165.3a6.16,6.16,0,0,1-6.15-6.15v0h0a6.12,6.12,0,0,1,6.12-6.14h22.21Z" fill="#ebebeb"/>
<path d="M181.35,170.25h49.29a1,1,0,0,1,1,1h0a1,1,0,0,1-1,1H181.35v-2Z" fill="#ebebeb"/>
<path d="M181.35,180.51h49.29a1,1,0,0,1,1,1h0a1,1,0,0,1-1,1H181.35v-2.05Z" fill="#ebebeb"/>
<path d="M230.17,180.51H187a4.1,4.1,0,0,1-4.11-4.1v0h0a4.11,4.11,0,0,1,4.11-4.1h43.21A10.22,10.22,0,0,0,230.17,180.51Z" fill="#f5f5f5"/>
<path d="M182.85,182.56H165.33a6.18,6.18,0,0,1-6.18-6.18h0a6.13,6.13,0,0,1,6.14-6.13h18C178.85,173,179.19,179.42,182.85,182.56Z" fill="#ebebeb"/>
<path d="M224.93,176.79H185.31s8.86-.09,19.8-.09S224.93,176.75,224.93,176.79Z" fill="#e0e0e0"/>
<path d="M229,178.61H189.38s8.87-.07,19.81-.07S229,178.57,229,178.61Z" fill="#e0e0e0"/>
<path d="M227.79,174.19h-39.6s8.86-.07,19.8-.07S227.79,174.15,227.79,174.19Z" fill="#e0e0e0"/>
<path d="M180.68,181.7s-4.15.07-9.27.07-9.28,0-9.28-.07,4.15-.08,9.28-.08S180.68,181.65,180.68,181.7Z" fill="#e0e0e0"/>
<path d="M180.68,171.27H162.13s4.15-.07,9.28-.07S180.68,171.22,180.68,171.27Z" fill="#e0e0e0"/>
<path d="M184.23,207.08H156.71a7.93,7.93,0,0,1-7.85-7.93h0a8,8,0,0,1,7.93-8H184.3a1.07,1.07,0,0,1,1,1.07V206a1,1,0,0,1-1,1.05Z" fill="#f5f5f5"/>
<path d="M177.38,191.2h63.48a1.32,1.32,0,0,1,1.32,1.32h0a1.32,1.32,0,0,1-1.32,1.31H177.38V191.2Z" fill="#f5f5f5"/>
<path d="M177.38,204.45h63.48a1.32,1.32,0,0,1,1.32,1.31h0a1.32,1.32,0,0,1-1.32,1.32H177.38v-2.63Z" fill="#f5f5f5"/>
<path d="M240.25,204.45H184.61a5.3,5.3,0,0,1-5.3-5.3h0a5.28,5.28,0,0,1,5.27-5.3h55.67A13.13,13.13,0,0,0,240.25,204.45Z" fill="#fafafa"/>
<path d="M179.31,207.08H156.63a7.84,7.84,0,0,1-7.77-7.86h0a8,8,0,0,1,8-8H180C174.17,194.69,174.59,203,179.31,207.08Z" fill="#ebebeb"/>
<path d="M233.56,199.63s-11.42.07-25.5.07-25.61-.07-25.61-.07,11.42-.07,25.51-.07S233.56,199.63,233.56,199.63Z" fill="#e0e0e0"/>
<path d="M238.74,202h-51s11.42-.08,25.51-.08S238.74,202,238.74,202Z" fill="#e0e0e0"/>
<path d="M237.2,197.45s-11.42.08-25.52.08-25.51,0-25.51-.08,11.42,0,25.51,0S237.2,197.41,237.2,197.45Z" fill="#e0e0e0"/>
<path d="M176.52,206H152.63s5.34-.08,11.94-.08S176.52,205.92,176.52,206Z" fill="#e0e0e0"/>
<path d="M176.52,192.53s-5.35.07-12,.07-11.94,0-11.94-.07,5.34,0,11.94,0S176.52,192.49,176.52,192.53Z" fill="#e0e0e0"/>
<path d="M194.76,191.26H169.64a4.54,4.54,0,0,1-4.54-4.54h0a4.54,4.54,0,0,1,4.54-4.54h25.12Z" fill="#ebebeb"/>
<path d="M188.29,182.18h51.59a1.07,1.07,0,0,1,1.07,1.06h0a1.07,1.07,0,0,1-1.07,1.07H188.29v-2.15h0Z" fill="#ebebeb"/>
<path d="M188.29,189.13h51.59A1.07,1.07,0,0,1,241,190.2h0a1.07,1.07,0,0,1-1.07,1.06H188.29v-2.13Z" fill="#ebebeb"/>
<path d="M239.4,189.13H192.3a2.39,2.39,0,0,1-2.39-2.4h0a2.38,2.38,0,0,1,2.36-2.4H239.4A3.64,3.64,0,0,0,239.4,189.13Z" fill="#f5f5f5"/>
<path d="M189.91,191.26h-20.3a4.5,4.5,0,0,1-4.51-4.5h0a4.59,4.59,0,0,1,4.58-4.58h20.71C185.73,184.18,186.07,188.94,189.91,191.26Z" fill="#ebebeb"/>
<path d="M233.92,186.34H192.48s9.27-.07,20.72-.07S233.92,186.31,233.92,186.34Z" fill="#e0e0e0"/>
<path d="M238.19,187.64s-9.27.07-20.72.07-20.73,0-20.73-.07,9.28,0,20.73,0S238.19,187.6,238.19,187.64Z" fill="#e0e0e0"/>
<path d="M187.63,190.37s-4.38.07-9.7.07-9.69,0-9.69-.07,4.38-.09,9.69-.09S187.63,190.33,187.63,190.37Z" fill="#e0e0e0"/>
<path d="M187.63,183.26s-4.38.07-9.7.07-9.69,0-9.69-.07,4.38,0,9.69,0S187.63,183.21,187.63,183.26Z" fill="#e0e0e0"/>
<path d="M240.36,182.18H169.2s15.93-.08,35.59-.08S240.36,182.1,240.36,182.18Z" fill="#e0e0e0"/>
<path d="M192.87,170.2h-25a4.54,4.54,0,0,1-4.54-4.54h0a4.54,4.54,0,0,1,4.54-4.54H193Z" fill="#f5f5f5"/>
<path d="M186.45,161.12H238a1.07,1.07,0,0,1,1.07,1.07h0a1.07,1.07,0,0,1-1.07,1.06H186.45V161.1h0Z" fill="#f5f5f5"/>
<path d="M186.45,168.07H238a1.07,1.07,0,0,1,1.07,1.07h0A1.06,1.06,0,0,1,238,170.2H186.45v-2.14h0Z" fill="#f5f5f5"/>
<path d="M237.53,168.07H190.42a2.4,2.4,0,0,1-2.4-2.39v0h0a2.39,2.39,0,0,1,2.37-2.39h47.14A3.63,3.63,0,0,0,237.53,168.07Z" fill="#fafafa"/>
<path d="M188,170.2H167.73a4.49,4.49,0,0,1-4.5-4.5h0a4.58,4.58,0,0,1,4.58-4.58h20.74C183.91,163.12,184.2,167.88,188,170.2Z" fill="#ebebeb"/>
<path d="M232.1,165.28H211.38C222.83,165.28,232.1,165.25,232.1,165.28Z" fill="#e0e0e0"/>
<path d="M236.3,166.58H194.86s9.27-.07,20.72-.07S236.3,166.54,236.3,166.58Z" fill="#e0e0e0"/>
<path d="M185.75,169.3s-4.38.07-9.7.07-9.7,0-9.7-.07,4.38,0,9.7,0S185.75,169.27,185.75,169.3Z" fill="#e0e0e0"/>
<path d="M185.75,162.19h-9.7C181.37,162.19,185.75,162.16,185.75,162.19Z" fill="#e0e0e0"/>
<path d="M238.5,161.12s-15.94.07-35.59.07-35.59,0-35.59-.07,15.93,0,35.59,0S238.5,161.08,238.5,161.12Z" fill="#e0e0e0"/>
<path d="M196.23,161.05H175.79a4.19,4.19,0,0,1-3.7-4.55h0a4.19,4.19,0,0,1,3.7-4.54h20.44Z" fill="#ebebeb"/>
<path d="M191,152h41.76a1.07,1.07,0,0,1,1.06,1.07h0a1.06,1.06,0,0,1-1.06,1.06H191V152Z" fill="#ebebeb"/>
<path d="M191,158.91h41.76a1.07,1.07,0,0,1,1.06,1.07h0a1.07,1.07,0,0,1-1.06,1.07H191V158.9Z" fill="#ebebeb"/>
<path d="M232.55,158.91h-38.3a2.21,2.21,0,0,1-2-2.41h0a2.21,2.21,0,0,1,2-2.39h38.3A4.25,4.25,0,0,0,232.55,158.91Z" fill="#f5f5f5"/>
<path d="M228.08,156.12s-7.55.08-16.85.08-16.85,0-16.85-.08,7.55,0,16.85,0S228.08,156.08,228.08,156.12Z" fill="#e0e0e0"/>
<path d="M231.54,157.42s-7.53.08-16.83.08-16.86,0-16.86-.08,7.54,0,16.86,0S231.54,157.38,231.54,157.42Z" fill="#e0e0e0"/>
<path d="M190.45,160.2s-3.54.07-7.9.07-7.89,0-7.89-.07,3.54,0,7.89,0S190.45,160.1,190.45,160.2Z" fill="#e0e0e0"/>
<path d="M190.45,153h-7.9C186.9,153,190.45,153,190.45,153Z" fill="#e0e0e0"/>
<polygon points="201.17 174.25 201.17 179.17 202.88 178.07 204.79 179.17 204.79 174.25 201.17 174.25" fill="#ebebeb"/>
<rect x="75.28" y="238.99" width="18.69" height="63" fill="#ebebeb"/>
<rect x="83.05" y="256.32" width="3.37" height="28.35" rx="1.68" fill="#fff"/>
<rect x="199.27" y="246.24" width="16.55" height="55.74" rx="0.25" fill="#ebebeb"/>
<path d="M209.11,263.07v22.09a1.46,1.46,0,0,1-1.46,1.46h0a1.46,1.46,0,0,1-1.46-1.46V263.07a1.46,1.46,0,0,1,1.46-1.46h0A1.46,1.46,0,0,1,209.11,263.07Z" fill="#fff"/>
<rect x="225.15" y="239" width="18.69" height="63" rx="0.25" fill="#ebebeb"/>
<path d="M236.28,258v25a1.69,1.69,0,0,1-1.68,1.68h0a1.69,1.69,0,0,1-1.7-1.67h0V258a1.7,1.7,0,0,1,1.7-1.69h0A1.69,1.69,0,0,1,236.28,258Z" fill="#fff"/>
<rect x="94.94" y="229.2" width="9.35" height="72.29" fill="#f5f5f5"/>
<path d="M100.5,251.06v26.66a.82.82,0,0,1-.81.84h0a.85.85,0,0,1-.85-.84h0V251.06a.85.85,0,0,1,.85-.84h0a.83.83,0,0,1,.83.83Z" fill="#fff"/>
<rect x="215.76" y="229.86" width="9.35" height="72.29" rx="0.25" fill="#f5f5f5"/>
<path d="M221.32,251.71v26.66a.85.85,0,0,1-.85.85h0a.83.83,0,0,1-.83-.83V251.71a.84.84,0,0,1,.83-.84h0A.85.85,0,0,1,221.32,251.71Z" fill="#fff"/>
<rect x="199.21" y="55.65" width="16.55" height="55.74" rx="0.25" fill="#f5f5f5"/>
<path d="M209.05,72.47v22.1A1.46,1.46,0,0,1,207.59,96h0a1.46,1.46,0,0,1-1.46-1.46V72.47A1.47,1.47,0,0,1,207.59,71h0A1.46,1.46,0,0,1,209.05,72.47Z" fill="#fff"/>
<rect x="225.09" y="48.38" width="18.69" height="63" rx="0.25" fill="#f5f5f5"/>
<path d="M236.22,67.39v25a1.69,1.69,0,0,1-1.67,1.7h0a1.7,1.7,0,0,1-1.68-1.7v-25a1.68,1.68,0,0,1,1.68-1.68h0a1.66,1.66,0,0,1,1.68,1.65Z" fill="#fff"/>
<rect x="215.7" y="39.25" width="9.35" height="72.29" rx="0.25" fill="#ebebeb"/>
<path d="M221.26,61.11V87.78a.84.84,0,0,1-.83.86h0a.85.85,0,0,1-.85-.83V61.11a.84.84,0,0,1,.85-.84h0a.84.84,0,0,1,.84.84Z" fill="#fff"/>
<rect x="136.24" y="189.44" width="13.95" height="16.58" fill="#f5f5f5"/>
<rect x="73.71" y="188.36" width="63" height="18.69" fill="#ebebeb"/>
<path d="M150.61,189.93H135v-1.57h15.58a.78.78,0,0,1,.79.78h0a.79.79,0,0,1-.79.79Z" fill="#ebebeb"/>
<path d="M150.61,207.05H135v-1.58h15.58a.79.79,0,0,1,.79.79h0a.79.79,0,0,1-.79.79Z" fill="#ebebeb"/>
<g opacity="0.4">
<rect x="124.32" y="188.36" width="7.45" height="18.69" fill="#f5f5f5"/>
</g>
<g opacity="0.4">
<rect x="79.3" y="188.36" width="7.45" height="18.69" fill="#f5f5f5"/>
</g>
<path d="M150.19,192.18H136.71s3-.09,6.73-.09S150.19,192.14,150.19,192.18Z" fill="#e0e0e0"/>
<path d="M150.19,194.66s-3,.09-6.75.09-6.73,0-6.73-.09,3-.08,6.73-.08S150.19,194.62,150.19,194.66Z" fill="#e0e0e0"/>
<path d="M150.19,197.72s-3,.08-6.75.08-6.73,0-6.73-.08,3-.08,6.73-.08S150.19,197.67,150.19,197.72Z" fill="#e0e0e0"/>
<path d="M150.19,200.78s-3,.09-6.75.09-6.73,0-6.73-.09,3-.08,6.73-.08S150.19,200.74,150.19,200.78Z" fill="#e0e0e0"/>
<path d="M150.19,203.85s-3,.07-6.75.07-6.73,0-6.73-.07,3-.09,6.73-.09S150.19,203.79,150.19,203.85Z" fill="#e0e0e0"/>
<rect x="91.04" y="196.12" width="28.35" height="3.37" rx="1.68" fill="#fff"/>
<rect x="178.12" y="247.27" width="15.44" height="15.6" fill="#f5f5f5"/>
<rect x="108.9" y="246.26" width="69.75" height="17.6" fill="#ebebeb"/>
<path d="M194,247.73H176.78v-1.46H194a.81.81,0,0,1,.86.73h0A.8.8,0,0,1,194,247.73Z" fill="#ebebeb"/>
<path d="M194,263.89H176.78v-1.46H194a.8.8,0,0,1,.86.74h0A.81.81,0,0,1,194,263.89Z" fill="#ebebeb"/>
<path d="M193.56,249.85s-3.34.07-7.46.07-7.47,0-7.47-.07,3.35,0,7.47,0S193.56,249.81,193.56,249.85Z" fill="#e0e0e0"/>
<path d="M193.56,252.2H178.63s3.35-.07,7.47-.07S193.56,252.2,193.56,252.2Z" fill="#e0e0e0"/>
<path d="M193.56,255.12s-3.34.09-7.46.09-7.47,0-7.47-.09,3.35-.07,7.47-.07S193.56,255,193.56,255.12Z" fill="#e0e0e0"/>
<path d="M193.56,258s-3.34.07-7.46.07-7.47,0-7.47-.07,3.35-.09,7.47-.09S193.56,257.91,193.56,258Z" fill="#e0e0e0"/>
<path d="M193.56,260.83s-3.34.08-7.46.08-7.47,0-7.47-.08,3.35-.08,7.47-.08S193.56,260.79,193.56,260.83Z" fill="#e0e0e0"/>
<rect x="177.73" y="264.19" width="15.67" height="9.51" fill="#fafafa"/>
<rect x="111.21" y="263.86" width="66.7" height="10.19" fill="#f5f5f5"/>
<path d="M177.42,264.54h16.84a.39.39,0,0,0,.41-.35h0a.37.37,0,0,0-.41-.33H177.42Z" fill="#f5f5f5"/>
<path d="M177.42,274.11h16.9a.35.35,0,0,0,.35-.35h0a.35.35,0,0,0-.35-.35h-16.9Z" fill="#f5f5f5"/>
<path d="M193.4,266s-3.48.08-7.76.08-7.74,0-7.74-.08,3.47,0,7.74,0S193.4,266,193.4,266Z" fill="#e0e0e0"/>
<path d="M193.4,267.8H177.9s3.47-.07,7.74-.07S193.4,267.76,193.4,267.8Z" fill="#e0e0e0"/>
<path d="M193.4,269.6s-3.48.07-7.76.07-7.74,0-7.74-.07,3.47,0,7.74,0S193.4,269.55,193.4,269.6Z" fill="#e0e0e0"/>
<path d="M193.4,271.39s-3.48.09-7.76.09-7.74,0-7.74-.09,3.47,0,7.74,0S193.4,271.35,193.4,271.39Z" fill="#e0e0e0"/>
<rect x="121.61" y="267.51" width="45.99" height="2.66" fill="#fafafa"/>
<rect x="179.77" y="274.96" width="15.99" height="25.76" fill="#f5f5f5"/>
<rect x="104.7" y="274.05" width="75.08" height="27.94" fill="#ebebeb"/>
<path d="M197.05,302H177.73v-1.81h19.32a1,1,0,0,1,1.06.88v0h0A1,1,0,0,1,197.05,302Z" fill="#ebebeb"/>
<path d="M197.18,275.86H177.73v-1.75h19.45a.89.89,0,0,1,.91.87v0h0A.91.91,0,0,1,197.18,275.86Z" fill="#ebebeb"/>
<g opacity="0.4">
<polygon points="163.62 274.05 147.84 301.99 161.18 301.99 176.15 274.05 163.62 274.05" fill="#fff"/>
</g>
<path d="M195.78,278.4s-3.59.09-8,.09-8,0-8-.09,3.58-.07,8-.07S195.78,278.36,195.78,278.4Z" fill="#e0e0e0"/>
<path d="M195.78,281.72h-16s3.58-.09,8-.09S195.78,281.67,195.78,281.72Z" fill="#e0e0e0"/>
<path d="M195.78,285s-3.59.07-8,.07-8,0-8-.07,3.58-.08,8-.08S195.78,285,195.78,285Z" fill="#e0e0e0"/>
<path d="M195.78,288.32s-3.59.07-8,.07-8,0-8-.07,3.58,0,8,0S195.78,288.27,195.78,288.32Z" fill="#e0e0e0"/>
<path d="M195.78,291.63s-3.59.09-8,.09-8,0-8-.09,3.58-.07,8-.07S195.78,291.63,195.78,291.63Z" fill="#e0e0e0"/>
<path d="M195.78,294.93s-3.59.08-8,.08-8,0-8-.08,3.58-.08,8-.08S195.78,294.89,195.78,294.93Z" fill="#e0e0e0"/>
<path d="M195.78,298.23h-16s3.58-.07,8-.07S195.78,298.19,195.78,298.23Z" fill="#e0e0e0"/>
<polygon points="112.49 188.18 93.06 188.18 102.78 171.34 112.49 154.5 122.22 171.34 131.95 188.18 112.49 188.18" fill="#fafafa"/>
<rect x="72.39" y="311.65" width="172.05" height="75.57" fill="#e0e0e0"/>
<rect x="72.39" y="406.87" width="172.05" height="75.57" fill="#e0e0e0"/>
<path d="M187.48,362.74H165.3a6.15,6.15,0,0,1-6.15-6.15h0a6.15,6.15,0,0,1,6.14-6.17h22.19Z" fill="#ebebeb"/>
<path d="M181.35,350.41h49.29a1,1,0,0,1,1,1h0a1,1,0,0,1-1,1H181.35v-2Z" fill="#ebebeb"/>
<path d="M181.35,360.69h49.29a1,1,0,0,1,1,1h0a1,1,0,0,1-1,1H181.35v-2.05Z" fill="#ebebeb"/>
<path d="M230.17,360.69H187a4.1,4.1,0,0,1-4.11-4.1h0a4.11,4.11,0,0,1,4.11-4.11h43.21A10.22,10.22,0,0,0,230.17,360.69Z" fill="#f5f5f5"/>
<path d="M182.85,362.74H165.33a6.18,6.18,0,0,1-6.18-6.18h0a6.16,6.16,0,0,1,6.14-6.15h18C178.85,353.13,179.19,359.6,182.85,362.74Z" fill="#ebebeb"/>
<path d="M224.93,357s-8.88.08-19.82.08-19.8,0-19.8-.08,8.86-.08,19.8-.08S224.93,356.93,224.93,357Z" fill="#e0e0e0"/>
<path d="M229,358.81s-8.88.07-19.81.07-19.81,0-19.81-.07,8.87-.07,19.81-.07S229,358.81,229,358.81Z" fill="#e0e0e0"/>
<path d="M227.79,354.43h-39.6s8.86-.07,19.8-.07S227.79,354.33,227.79,354.43Z" fill="#e0e0e0"/>
<path d="M180.68,361.88H162.13s4.15-.08,9.28-.08S180.68,361.83,180.68,361.88Z" fill="#e0e0e0"/>
<path d="M180.68,351.51H162.13s4.15-.09,9.28-.09S180.68,351.41,180.68,351.51Z" fill="#e0e0e0"/>
<path d="M184.23,387.26H156.71a7.93,7.93,0,0,1-7.85-7.93h0a8,8,0,0,1,7.93-7.95H184.3a1.07,1.07,0,0,1,1,1.07v13.76a1.06,1.06,0,0,1-1.08,1.05Z" fill="#f5f5f5"/>
<path d="M177.38,371.38h63.48a1.32,1.32,0,0,1,1.32,1.32h0a1.32,1.32,0,0,1-1.32,1.31H177.38v-2.63Z" fill="#f5f5f5"/>
<path d="M177.38,384.61h63.48a1.32,1.32,0,0,1,1.32,1.32h0a1.31,1.31,0,0,1-1.32,1.31H177.38v-2.63Z" fill="#f5f5f5"/>
<path d="M240.25,384.61H184.61a5.28,5.28,0,0,1-5.3-5.27h0a5.28,5.28,0,0,1,5.27-5.3h55.67A13.08,13.08,0,0,0,240.25,384.61Z" fill="#fafafa"/>
<path d="M179.31,387.26H156.63a7.84,7.84,0,0,1-7.77-7.86h0a8,8,0,0,1,8-8H180C174.17,374.87,174.59,383.2,179.31,387.26Z" fill="#ebebeb"/>
<path d="M233.56,379.81s-11.42.07-25.5.07-25.51,0-25.51-.07,11.42-.07,25.51-.07S233.56,379.78,233.56,379.81Z" fill="#e0e0e0"/>
<path d="M238.74,382.18s-11.42.07-25.51.07-25.51,0-25.51-.07,11.42-.08,25.51-.08S238.74,382.18,238.74,382.18Z" fill="#e0e0e0"/>
<path d="M237.2,377.63s-11.42.08-25.52.08-25.51,0-25.51-.08,11.42-.07,25.51-.07S237.2,377.59,237.2,377.63Z" fill="#e0e0e0"/>
<path d="M176.52,386.15H152.63s5.34-.07,11.94-.07S176.52,386.1,176.52,386.15Z" fill="#e0e0e0"/>
<path d="M176.52,372.71s-5.35.08-12,.08-11.94,0-11.94-.08,5.34,0,11.94,0S176.52,372.67,176.52,372.71Z" fill="#e0e0e0"/>
<path d="M194.76,371.44H169.64a4.54,4.54,0,0,1-4.54-4.54h0a4.55,4.55,0,0,1,4.54-4.54h25.12Z" fill="#ebebeb"/>
<path d="M188.29,362.36h51.59a1.07,1.07,0,0,1,1.07,1.06h0a1.07,1.07,0,0,1-1.07,1.07H188.29v-2.13Z" fill="#ebebeb"/>
<path d="M188.29,369.31h51.59a1.07,1.07,0,0,1,1.07,1.07h0a1.06,1.06,0,0,1-1.07,1.06H188.29V369.3Z" fill="#ebebeb"/>
<path d="M239.4,369.31H192.3a2.39,2.39,0,0,1-2.39-2.39v0h0a2.37,2.37,0,0,1,2.36-2.39H239.4A3.63,3.63,0,0,0,239.4,369.31Z" fill="#f5f5f5"/>
<path d="M189.91,371.44h-20.3a4.5,4.5,0,0,1-4.51-4.5h0a4.59,4.59,0,0,1,4.58-4.58h20.71C185.73,364.36,186.07,369.12,189.91,371.44Z" fill="#ebebeb"/>
<path d="M233.92,366.52s-9.27.07-20.72.07-20.72,0-20.72-.07,9.27,0,20.72,0S233.92,366.49,233.92,366.52Z" fill="#e0e0e0"/>
<path d="M238.19,367.82s-9.27.07-20.72.07-20.73,0-20.73-.07,9.28-.07,20.73-.07S238.19,367.78,238.19,367.82Z" fill="#e0e0e0"/>
<path d="M187.63,370.49s-4.38.09-9.7.09-9.69,0-9.69-.09,4.38,0,9.69,0Z" fill="#e0e0e0"/>
<path d="M187.63,363.44s-4.38.07-9.7.07-9.69,0-9.69-.07,4.38-.09,9.69-.09S187.63,363.4,187.63,363.44Z" fill="#e0e0e0"/>
<path d="M240.36,362.36s-15.93.07-35.57.07-35.59,0-35.59-.07,15.93-.07,35.59-.07S240.36,362.31,240.36,362.36Z" fill="#e0e0e0"/>
<path d="M192.87,350.38h-25a4.54,4.54,0,0,1-4.54-4.54h0a4.53,4.53,0,0,1,4.53-4.55H193Z" fill="#f5f5f5"/>
<path d="M186.45,341.29H238a1.06,1.06,0,0,1,1.07,1.06h0a1.07,1.07,0,0,1-1.07,1.07H186.45v-2.13Z" fill="#f5f5f5"/>
<path d="M186.45,348.25H238a1.07,1.07,0,0,1,1.07,1.07h0a1.06,1.06,0,0,1-1.07,1.06H186.45v-2.14Z" fill="#f5f5f5"/>
<path d="M237.53,348.25H190.42a2.4,2.4,0,0,1-2.4-2.39v0h0a2.39,2.39,0,0,1,2.37-2.39h47.14A3.63,3.63,0,0,0,237.53,348.25Z" fill="#fafafa"/>
<path d="M188,350.38H167.73a4.49,4.49,0,0,1-4.5-4.49h0a4.56,4.56,0,0,1,4.54-4.6h20.78C183.91,343.3,184.2,348.06,188,350.38Z" fill="#ebebeb"/>
<path d="M232.1,345.46H190.65s9.28-.07,20.73-.07S232.1,345.42,232.1,345.46Z" fill="#e0e0e0"/>
<path d="M236.3,346.76s-9.27.08-20.72.08-20.72,0-20.72-.08,9.27-.07,20.72-.07S236.3,346.72,236.3,346.76Z" fill="#e0e0e0"/>
<path d="M185.75,349.48h-19.4s4.38-.07,9.7-.07S185.75,349.45,185.75,349.48Z" fill="#e0e0e0"/>
<path d="M185.75,342.37h-19.4s4.38-.08,9.7-.08S185.75,342.34,185.75,342.37Z" fill="#e0e0e0"/>
<path d="M238.5,341.29s-15.94.07-35.59.07-35.59,0-35.59-.07,15.93,0,35.59,0Z" fill="#e0e0e0"/>
<path d="M196.23,341.29H175.79a4.19,4.19,0,0,1-3.7-4.55h0a4.18,4.18,0,0,1,3.7-4.54h20.44Z" fill="#ebebeb"/>
<path d="M191,332.14h41.76a1.07,1.07,0,0,1,1.06,1.07h0a1.07,1.07,0,0,1-1.06,1.07H191v-2.15Z" fill="#ebebeb"/>
<path d="M191,339.1h41.76a1.06,1.06,0,0,1,1.06,1.06h0a1.07,1.07,0,0,1-1.06,1.07H191V339.1Z" fill="#ebebeb"/>
<path d="M232.55,339.1h-38.3a2.22,2.22,0,0,1-2-2.41h0a2.21,2.21,0,0,1,2-2.4h38.3A4.27,4.27,0,0,0,232.55,339.1Z" fill="#f5f5f5"/>
<path d="M228.08,336.31h-33.7s7.55-.08,16.85-.08S228.08,336.26,228.08,336.31Z" fill="#e0e0e0"/>
<path d="M231.54,337.61s-7.53.07-16.83.07-16.86,0-16.86-.07,7.54,0,16.86,0S231.54,337.56,231.54,337.61Z" fill="#e0e0e0"/>
<path d="M190.45,340.32H174.66s3.54-.07,7.89-.07S190.45,340.28,190.45,340.32Z" fill="#e0e0e0"/>
<path d="M190.45,333.21s-3.54.07-7.9.07-7.89,0-7.89-.07,3.54-.07,7.89-.07S190.45,333.17,190.45,333.21Z" fill="#e0e0e0"/>
<polygon points="201.17 354.43 201.17 359.35 202.88 358.25 204.79 359.35 204.79 354.43 201.17 354.43" fill="#ebebeb"/>
<rect x="75.28" y="419.17" width="18.69" height="63" fill="#ebebeb"/>
<rect x="83.05" y="436.5" width="3.37" height="28.35" rx="1.68" fill="#fff"/>
<rect x="199.27" y="426.43" width="16.55" height="55.74" rx="0.25" fill="#ebebeb"/>
<path d="M209.11,443.25v22.17a1.46,1.46,0,0,1-1.46,1.46h0a1.47,1.47,0,0,1-1.46-1.46V443.25a1.46,1.46,0,0,1,1.46-1.46h0A1.46,1.46,0,0,1,209.11,443.25Z" fill="#fff"/>
<rect x="225.15" y="419.18" width="18.69" height="63" rx="0.25" fill="#ebebeb"/>
<path d="M236.28,438.18v25a1.68,1.68,0,0,1-1.68,1.68h0a1.68,1.68,0,0,1-1.7-1.66v-25a1.7,1.7,0,0,1,1.7-1.69h0A1.69,1.69,0,0,1,236.28,438.18Z" fill="#fff"/>
<rect x="94.94" y="409.38" width="9.35" height="72.29" fill="#f5f5f5"/>
<path d="M100.5,431.24V457.9a.81.81,0,0,1-.81.84h0a.85.85,0,0,1-.85-.84V431.24a.85.85,0,0,1,.85-.84h0a.83.83,0,0,1,.83.83Z" fill="#fff"/>
<rect x="215.76" y="410.03" width="9.35" height="72.29" rx="0.25" fill="#f5f5f5"/>
<path d="M221.32,431.83v26.72a.85.85,0,0,1-.85.85h0a.83.83,0,0,1-.83-.83V431.83a.83.83,0,0,1,.83-.83h0A.85.85,0,0,1,221.32,431.83Z" fill="#fff"/>
<rect x="136.24" y="369.62" width="13.95" height="16.58" fill="#f5f5f5"/>
<rect x="73.71" y="368.54" width="63" height="18.69" fill="#ebebeb"/>
<path d="M150.61,370.11H135v-1.57h15.58a.78.78,0,0,1,.79.78h0A.79.79,0,0,1,150.61,370.11Z" fill="#ebebeb"/>
<path d="M150.61,387.23H135v-1.56h15.58a.79.79,0,0,1,.79.77h0a.79.79,0,0,1-.79.79Z" fill="#ebebeb"/>
<g opacity="0.4">
<rect x="124.32" y="368.54" width="7.45" height="18.69" fill="#f5f5f5"/>
</g>
<g opacity="0.4">
<rect x="79.3" y="368.54" width="7.45" height="18.69" fill="#f5f5f5"/>
</g>
<path d="M150.19,372.36s-3,.08-6.75.08-6.73,0-6.73-.08,3-.09,6.73-.09S150.19,372.32,150.19,372.36Z" fill="#e0e0e0"/>
<path d="M150.19,374.87s-3,.09-6.75.09-6.73,0-6.73-.09,3-.08,6.73-.08S150.19,374.87,150.19,374.87Z" fill="#e0e0e0"/>
<path d="M150.19,377.9s-3,.08-6.75.08-6.73,0-6.73-.08,3-.08,6.73-.08S150.19,377.79,150.19,377.9Z" fill="#e0e0e0"/>
<path d="M150.19,381s-3,.09-6.75.09-6.73,0-6.73-.09,3-.08,6.73-.08S150.19,380.92,150.19,381Z" fill="#e0e0e0"/>
<path d="M150.19,384s-3,.07-6.75.07-6.73,0-6.73-.07,3-.09,6.73-.09S150.19,384,150.19,384Z" fill="#e0e0e0"/>
<rect x="91.04" y="376.31" width="28.35" height="3.37" rx="1.68" fill="#fff"/>
<rect x="178.12" y="427.45" width="15.44" height="15.6" fill="#f5f5f5"/>
<rect x="108.9" y="426.44" width="69.75" height="17.6" fill="#ebebeb"/>
<path d="M194,427.92H176.78v-1.47H194a.81.81,0,0,1,.86.73h0A.81.81,0,0,1,194,427.92Z" fill="#ebebeb"/>
<path d="M194,444H176.78v-1.46H194a.8.8,0,0,1,.86.74h0A.81.81,0,0,1,194,444Z" fill="#ebebeb"/>
<path d="M193.56,430s-3.34.08-7.46.08-7.47,0-7.47-.08,3.35,0,7.47,0S193.56,430,193.56,430Z" fill="#e0e0e0"/>
<path d="M193.56,432.37s-3.34.07-7.46.07-7.47,0-7.47-.07,3.35-.07,7.47-.07S193.56,432.33,193.56,432.37Z" fill="#e0e0e0"/>
<path d="M193.56,435.25s-3.34.08-7.46.08-7.47,0-7.47-.08,3.35,0,7.47,0S193.56,435.2,193.56,435.25Z" fill="#e0e0e0"/>
<path d="M193.56,438.14s-3.34.07-7.46.07-7.47,0-7.47-.07,3.35-.09,7.47-.09S193.56,438.09,193.56,438.14Z" fill="#e0e0e0"/>
<path d="M193.56,441H178.63s3.35-.08,7.47-.08S193.56,441,193.56,441Z" fill="#e0e0e0"/>
<rect x="177.73" y="444.37" width="15.67" height="9.51" fill="#fafafa"/>
<rect x="111.21" y="444.04" width="66.7" height="10.19" fill="#f5f5f5"/>
<path d="M177.42,444.72h16.84a.39.39,0,0,0,.41-.35h0a.37.37,0,0,0-.41-.33H177.42Z" fill="#f5f5f5"/>
<path d="M177.42,454.23h16.9a.35.35,0,0,0,.35-.35h0a.35.35,0,0,0-.35-.35h-16.9Z" fill="#f5f5f5"/>
<path d="M193.4,446.18s-3.48.08-7.76.08-7.74,0-7.74-.08,3.47-.08,7.74-.08S193.4,446.14,193.4,446.18Z" fill="#e0e0e0"/>
<path d="M193.4,448s-3.48.07-7.76.07-7.74,0-7.74-.07,3.47-.07,7.74-.07S193.4,447.89,193.4,448Z" fill="#e0e0e0"/>
<path d="M193.4,449.78H177.9s3.47-.08,7.74-.08S193.4,449.73,193.4,449.78Z" fill="#e0e0e0"/>
<path d="M193.4,451.57s-3.48.09-7.76.09-7.74,0-7.74-.09,3.47,0,7.74,0S193.4,451.53,193.4,451.57Z" fill="#e0e0e0"/>
<rect x="121.61" y="447.67" width="45.99" height="2.66" fill="#fafafa"/>
<rect x="179.77" y="455.14" width="15.99" height="25.76" fill="#f5f5f5"/>
<rect x="104.7" y="454.23" width="75.08" height="27.94" fill="#ebebeb"/>
<path d="M197.05,482.17H177.73v-1.81h19.32a1,1,0,0,1,1.06.88v0h0A1,1,0,0,1,197.05,482.17Z" fill="#ebebeb"/>
<path d="M197.18,456H177.73v-1.81h19.45a.9.9,0,0,1,.91.88v0h0A.9.9,0,0,1,197.18,456Z" fill="#ebebeb"/>
<g opacity="0.4">
<polygon points="163.62 454.23 147.84 482.17 161.18 482.17 176.15 454.23 163.62 454.23" fill="#fff"/>
</g>
<path d="M195.78,458.58s-3.59.09-8,.09-8,0-8-.09,3.58-.07,8-.07S195.78,458.54,195.78,458.58Z" fill="#e0e0e0"/>
<path d="M195.78,461.9s-3.59.07-8,.07-8,0-8-.07,3.58-.09,8-.09S195.78,461.85,195.78,461.9Z" fill="#e0e0e0"/>
<path d="M195.78,465.2h-16s3.58-.09,8-.09S195.78,465.15,195.78,465.2Z" fill="#e0e0e0"/>
<path d="M195.78,468.5s-3.59.07-8,.07-8,0-8-.07,3.58-.07,8-.07S195.78,468.46,195.78,468.5Z" fill="#e0e0e0"/>
<path d="M195.78,471.8s-3.59.09-8,.09-8,0-8-.09,3.58-.07,8-.07S195.78,471.76,195.78,471.8Z" fill="#e0e0e0"/>
<path d="M195.78,475.11s-3.59.08-8,.08-8,0-8-.08,3.58-.08,8-.08S195.78,475.07,195.78,475.11Z" fill="#e0e0e0"/>
<path d="M195.78,478.41s-3.59.08-8,.08-8,0-8-.08,3.58,0,8,0S195.78,478.37,195.78,478.41Z" fill="#e0e0e0"/>
<polygon points="112.49 368.36 93.06 368.36 102.78 351.52 112.49 334.69 122.22 351.52 131.95 368.36 112.49 368.36" fill="#fafafa"/>
</g>
<rect x="374.16" y="199.52" width="379.43" height="255.56" fill="#bd0003" data-primary="true"/>
<g opacity="0.3">
<path d="M675.43,455.05H454.94V282.58c72.84-22.14,146.35-21.95,220.49,0Z"/>
</g>
<path d="M785.65,188.41H349.82a5.8,5.8,0,0,1-5.8-5.8h0a5.8,5.8,0,0,1,5.8-5.8H785.65a5.8,5.8,0,0,1,5.8,5.8h0A5.8,5.8,0,0,1,785.65,188.41Z" fill="#bd0003" data-primary="true"/>
<path d="M769,199.52H362.5a5.82,5.82,0,0,1-5.81-5.82h0a5.8,5.8,0,0,1,5.8-5.8H769a5.8,5.8,0,0,1,5.81,5.79h0A5.82,5.82,0,0,1,769,199.52Z" fill="#bd0003" data-primary="true"/>
<g opacity="0.4">
<path d="M769,199.52H362.5a5.82,5.82,0,0,1-5.81-5.82h0a5.8,5.8,0,0,1,5.8-5.8H769a5.8,5.8,0,0,1,5.81,5.79h0A5.82,5.82,0,0,1,769,199.52Z" fill="#fff"/>
</g>
<path d="M756.37,233.73H372.49a5.8,5.8,0,0,1-5.82-5.78v0h0a5.8,5.8,0,0,1,5.8-5.8h383.9a5.81,5.81,0,0,1,5.81,5.8h0A5.8,5.8,0,0,1,756.37,233.73Z" fill="#bd0003" data-primary="true"/>
<g opacity="0.3">
<path d="M660.65,455.05H468.21V303.67c63.57-14.66,127.7-14.41,192.44,0Z"/>
</g>
<g opacity="0.3">
<polygon points="387.95 435.06 387.95 252.12 432.47 252.12 432.47 248.53 385.1 248.53 385.1 434.51 387.95 435.06"/>
</g>
<g opacity="0.3">
<polygon points="700.37 434.79 700.37 251.84 744.88 251.84 744.88 248.26 697.51 248.26 697.51 434.22 700.37 434.79"/>
</g>
<g opacity="0.6">
<path d="M434,436.05H383.56V247H434ZM386.64,433h44.29V250.07H386.64Z" fill="#fff"/>
</g>
<g opacity="0.6">
<path d="M747.71,436.05h-53V247h53ZM697.77,433h46.87V250.07H697.77Z" fill="#fff"/>
</g>
<g opacity="0.5">
<path d="M743.22,218.24H381V205.67H743.22Zm-359.16-3.08H740.14v-6.41H384.06Z" fill="#fff"/>
</g>
<path d="M602.68,446.74c.23-7.39,6.15-16.26,5.94-23.65,0-3.29-1.54-6.51-1.06-9.77.07-.5.24-1.09.73-1.27s1.2.3,1.62.78c2.61,3.08,5.21,6.08,7.69,9.16a17.88,17.88,0,0,1,4.2,7.07c1,4.42-1.54,9.06-5.08,11.83s-9.72,4.77-14.12,5.85" fill="#bd0003" data-primary="true"/>
<path d="M577.85,380.48s-4.85,10.41,7.95,15.77,15.22,12.49,12.79,21.12l-2.07,3.57s-1.38-9.82-4.5-5.36.69,7.44,3.46,10.77,2.77,11.91-1.73,16.67-39.07,10.41-47,4.75-13.84-5.65-14.52-19.63,5.18-15.77,4.15-28.26-4.84-15.48-.35-24.7,22.83-26.49,27-30.06a5.4,5.4,0,0,1,4.69-1.54,2.16,2.16,0,0,1,1.54,3c-1.83,4.25-6.38,15.59-7.2,25.07-.52,6.06,3.37,13.56,9.34,12.2S577.85,380.48,577.85,380.48Z" fill="#bd0003" data-primary="true"/>
<path d="M578.91,336.32s-4.23,2.08-3.43,4.51,4.44,10.26,4.44,15.48v9.5a96.83,96.83,0,0,0,4.45-17.9C585.17,340.32,581.39,334.55,578.91,336.32Z" fill="#bd0003" data-primary="true"/>
<path d="M558.88,337.63s-2.28-11.19,1-19.31,3.9-12,2.93-15.38.42-4.77.42-4.77,7.69,4.47,8.37,12-3.91,9-7,14.56A102.36,102.36,0,0,0,558.88,337.63Z" fill="#bd0003" data-primary="true"/>
<path d="M588.14,330.8h-.48a1.83,1.83,0,0,0-1.75,1.18,1.29,1.29,0,0,0-.17.74,1.14,1.14,0,0,0,.08.51,1.75,1.75,0,0,0,.49.84l.38.31a2,2,0,0,0,1,.26h.48a1.47,1.47,0,0,0,.74-.17,1.74,1.74,0,0,0,1-1,1.47,1.47,0,0,0,.17-.74l-.07-.52a1.94,1.94,0,0,0-.5-.85l-.38-.29A1.75,1.75,0,0,0,588.14,330.8Z" fill="#bd0003" data-primary="true"/>
<path d="M521.38,367.92v.4a1.54,1.54,0,0,0,.17.76,1.38,1.38,0,0,0,.4.61,1.33,1.33,0,0,0,.62.4,1.44,1.44,0,0,0,.74.16h.5a1.94,1.94,0,0,0,.85-.5l.31-.38a2,2,0,0,0,.26-1V368a1.39,1.39,0,0,0-.17-.74,1.3,1.3,0,0,0-.4-.61,1.38,1.38,0,0,0-.61-.4,1.49,1.49,0,0,0-.74-.17l-.51.08a1.78,1.78,0,0,0-.85.49l-.31.38a2.19,2.19,0,0,0-.26,1Z" fill="#bd0003" data-primary="true"/>
<path d="M545,335.29a1,1,0,0,0,.84-1.08,1,1,0,0,0-.84-.84,1,1,0,0,0,0,1.92Z" fill="#bd0003" data-primary="true"/>
<path d="M597.15,379.09h.48A.54.54,0,0,0,598,379a.79.79,0,0,0,.31-.2,1,1,0,0,0,.28-.67v-.26a.94.94,0,0,0-.25-.42l-.19-.15a.91.91,0,0,0-.49-.14h-.47a.78.78,0,0,0-.37.09.87.87,0,0,0-.51.51.67.67,0,0,0-.08.37v.24a.85.85,0,0,0,.25.43l.2.16A1,1,0,0,0,597.15,379.09Z" fill="#bd0003" data-primary="true"/>
<path d="M588.59,315.23l.46-.4a.72.72,0,0,0,.2-.31.81.81,0,0,0,0-.74.72.72,0,0,0-.2-.31l-.19-.15a1,1,0,0,0-.49-.14h-.26a1,1,0,0,0-.42.26l-.47.4a.79.79,0,0,0-.2.31.87.87,0,0,0,0,.74.62.62,0,0,0,.2.31l.2.15a.86.86,0,0,0,.47.14h.26a.92.92,0,0,0,.44-.25Z" fill="#bd0003" data-primary="true"/>
<path d="M556.17,298.84l.48-.4a.88.88,0,0,0,.2-.3,1,1,0,0,0,0-.74.72.72,0,0,0-.2-.31l-.2-.15a.92.92,0,0,0-.48-.14h-.26a.88.88,0,0,0-.43.24l-.46.4a.62.62,0,0,0-.2.31.59.59,0,0,0-.08.37,1,1,0,0,0,.28.68l.18.15a1,1,0,0,0,.49.14h.26a1,1,0,0,0,.42-.26Z" fill="#bd0003" data-primary="true"/>
<path d="M520.58,417.34c-3.69-1.36-4.07-5-2.87-8.79,1-3,3.78-5.72,2.93-8.77-.75-2.75-4-3.81-6.15-5.63a9,9,0,0,1,6.86-15.95c.69.85.19,2.17-.6,2.95a14.68,14.68,0,0,0-2.4,2.26c-1.23,2,.2,4.62,2,6.16s4,2.75,5,4.88c1.18,2.61,0,5.72-1.54,8.1s-3.77,4.45-4.85,7.11-.72,6.28,1.8,7.69" fill="#bd0003" data-primary="true"/>
<g opacity="0.2">
<path d="M586.94,431.74c-.77-4-4.37-7.25-4.43-11.31,0-4.72,4.74-9.32,2.63-13.58-1.88-3.77-8-4.13-9.74-8-1-2.21-.49-5.38-2.66-6.61-1.66-.94-3.71,0-5.6.27-5.39.85-10.28-4-11.48-9.12s.22-10.49,1.32-15.68a5.69,5.69,0,0,0,.11-2.84,2.08,2.08,0,0,0-2.2-1.54,3.09,3.09,0,0,0-1.46.92c-4.25,4-8.66,8.29-10.31,13.85-1.75,5.86-2.89,10.41-.87,16.2s4.1,9.48,3.76,15.57c-.24,4.29-3.36,7.69-4.61,11.88a22.58,22.58,0,0,0,1,16c1.68,3.95,10.85,11.24,15.14,12.3l8.26-.24c3.83-1.46,13.54-4.88,16.65-7.51S587.69,435.66,586.94,431.74Z" fill="#fff"/>
</g>
<g opacity="0.2">
<path d="M562.18,450c5-3.2,7.7-13.77,7.05-20.38s-3.08-12.9-5.49-19.07l-3.69-9.37c-.54-1.37-1.43-3-2.91-2.92-1.12,0-1.92,1.12-2.34,2.17-1.54,4.09.2,8.65.4,13,.2,4.92-1.65,9.71-1.78,14.63-.25,8.33,2.35,20.19,8.76,21.91" fill="#fff"/>
</g>
<g clip-path="url(#b4d98677-a7ee-4554-8a60-2f0c3b87966a)">
<g opacity="0.3">
<path d="M543,447.36c-4.33-5.19-8.92-11.05-8.7-17.81.12-4.12,2.06-7.93,3.35-11.86a40.15,40.15,0,0,0,1.43-19.4c-.84-4.83-2.58-9.54-2.69-14.44-.15-7.37,3.46-14.4,8.41-19.87,4.62-5.12,13-11,19.05-15a.4.4,0,0,1,.55.12.4.4,0,0,1,0,.38,64.78,64.78,0,0,0-4.71,15.21c-.66,4.88-2,13.63.15,18.06,2.59,5.33,11.74.6,14.85,2.91,2.06,1.54,1.11,6.16,3.18,7.69a157.59,157.59,0,0,0,13.45,9.08,12,12,0,0,1,4.51,5.15c3.52,7.85-4.06,1.27-5.82,6.94-2.66,8.67,5.29,18.47,1.28,26.57-.8,1.65-2.09,3.08-2.11,5a2.52,2.52,0,0,0,1.54,2.46c1.63.63,3.08-.91,4-2.26,5.07-7.26,9.64-15,11.79-23.6s1.65-18.13-2.95-25.68c-3.68-6-9.57-10.29-15-14.8s-10.77-9.77-12.59-16.6.14-14.08-2.88-20.71a10.66,10.66,0,0,0-5.38-5.54c-4.88-2.07-8.89,1-12.31,3.83-7.82,6.47-15.58,13.23-21,21.8s-8.4,19.27-5.6,29c1.63,5.65,5.08,10.77,5.6,16.66.58,6.59-4.95,10.3-5.35,16.93-.51,8.12,6,19,12.76,23.47"/>
</g>
</g>
<g clip-path="url(#b13ddbb0-c262-4a5e-b151-05ef0aec4178)">
<g opacity="0.3">
<path d="M578.66,358a19,19,0,0,0,.46-9.23c-.3-1.54-.26-7.44.8-8.61.6-.67,2.74,3.27,3.48,4.77,6.83,13.84,3,1.67,2.82-.88l.67-1.31-4.1-7.6-5.28-.8-5.88,4.15,3.75,6.9Z"/>
</g>
</g>
<path d="M564,447.12a78,78,0,0,1-2.9-27.32,64.72,64.72,0,0,1,2.15,26.76" fill="#fff"/>
<rect x="468.32" y="399.68" width="64.8" height="2.42" fill="#2f2e41" data-secondary="true"/>
<rect x="468.54" y="445.57" width="64.57" height="2.42" fill="#2f2e41" data-secondary="true"/>
<rect x="476.75" y="400.88" width="2.42" height="45.52" fill="#2f2e41" data-secondary="true"/>
<rect x="522.6" y="400.88" width="2.42" height="45.52" fill="#2f2e41" data-secondary="true"/>
<rect x="472.81" y="447.29" width="2.29" height="4.25" fill="#2f2e41" data-secondary="true"/>
<rect x="499.92" y="447.29" width="2.29" height="4.25" fill="#2f2e41" data-secondary="true"/>
<rect x="526.57" y="447.29" width="2.29" height="4.25" fill="#2f2e41" data-secondary="true"/>
<rect x="468.32" y="411.62" width="9.65" height="2.37" fill="#2f2e41" data-secondary="true"/>
<rect x="523.44" y="411.62" width="11.2" height="2.37" fill="#2f2e41" data-secondary="true"/>
<rect x="523.44" y="433.6" width="9.98" height="2.37" fill="#2f2e41" data-secondary="true"/>
<rect x="468.32" y="434.14" width="9.65" height="2.37" fill="#2f2e41" data-secondary="true"/>
<path d="M500.83,448.31h0a1.56,1.56,0,0,1-1.08-.46l-22.44-23.08a1.53,1.53,0,0,1,0-2.15l22.44-22.76a1.53,1.53,0,0,1,1.11-.46h0a1.55,1.55,0,0,1,1.09.46l23,23.57a1.55,1.55,0,0,1,0,2.17l-23,22.34A1.54,1.54,0,0,1,500.83,448.31Zm-20.31-24.62,20.34,21,20.77-20.19-20.82-21.34Z" fill="#2f2e41" data-secondary="true"/>
<path d="M508.43,433.09H493.24a1.53,1.53,0,0,1-1.53-1.54v-15.2a1.52,1.52,0,0,1,1.53-1.53h15.19a1.53,1.53,0,0,1,1.54,1.53v15.2A1.54,1.54,0,0,1,508.43,433.09ZM494.78,430h12.11V417.89H494.78Z" fill="#2f2e41" data-secondary="true"/>
<path d="M508.43,417.89a1.54,1.54,0,0,1-1-2.69l4-3.55a1.54,1.54,0,1,1,2,2.3l-4,3.56A1.51,1.51,0,0,1,508.43,417.89Z" fill="#2f2e41" data-secondary="true"/>
<path d="M493.24,417.89a1.52,1.52,0,0,1-1.17-.52l-3.6-4.14a1.55,1.55,0,1,1,2.33-2l3.6,4.15a1.54,1.54,0,0,1-.14,2.17A1.46,1.46,0,0,1,493.24,417.89Z" fill="#2f2e41" data-secondary="true"/>
<path d="M489.71,436.86a1.53,1.53,0,0,1-1.55-1.53,1.57,1.57,0,0,1,.42-1.07l3.57-3.83a1.54,1.54,0,0,1,2.25,2.11h0l-3.54,3.77A1.56,1.56,0,0,1,489.71,436.86Z" fill="#2f2e41" data-secondary="true"/>
<path d="M512.46,437a1.55,1.55,0,0,1-1.08-.43l-4-3.92a1.54,1.54,0,0,1,2.14-2.2l4,3.92a1.55,1.55,0,0,1,0,2.18A1.54,1.54,0,0,1,512.46,437Z" fill="#2f2e41" data-secondary="true"/>
<rect x="532.6" y="399.68" width="64.8" height="2.42" fill="#2f2e41" data-secondary="true"/>
<rect x="532.81" y="445.57" width="64.57" height="2.42" fill="#2f2e41" data-secondary="true"/>
<rect x="541.03" y="400.88" width="2.42" height="45.52" fill="#2f2e41" data-secondary="true"/>
<rect x="586.89" y="400.88" width="2.42" height="45.52" fill="#2f2e41" data-secondary="true"/>
<rect x="537.11" y="447.29" width="2.29" height="4.25" fill="#2f2e41" data-secondary="true"/>
<rect x="564.22" y="447.29" width="2.29" height="4.25" fill="#2f2e41" data-secondary="true"/>
<rect x="590.85" y="447.29" width="2.29" height="4.25" fill="#2f2e41" data-secondary="true"/>
<rect x="532.6" y="411.62" width="9.65" height="2.37" fill="#2f2e41" data-secondary="true"/>
<rect x="587.72" y="411.62" width="8.2" height="2.37" fill="#2f2e41" data-secondary="true"/>
<rect x="587.72" y="433.6" width="8.2" height="2.37" fill="#2f2e41" data-secondary="true"/>
<rect x="532.6" y="433.6" width="9.65" height="2.37" fill="#2f2e41" data-secondary="true"/>
<path d="M565.11,448.31h0a1.53,1.53,0,0,1-1.09-.46l-22.45-23.08a1.53,1.53,0,0,1,0-2.15L564,399.86a1.53,1.53,0,0,1,1.09-.46h0a1.57,1.57,0,0,1,1.11.46l23,23.57a1.44,1.44,0,0,1,.43,1.09,1.51,1.51,0,0,1-.46,1.08l-23,22.34A1.49,1.49,0,0,1,565.11,448.31Zm-20.3-24.62,20.33,21L586,424.42l-20.82-21.34Z" fill="#2f2e41" data-secondary="true"/>
<path d="M572.72,433.09h-15.2a1.54,1.54,0,0,1-1.54-1.54v-15.2a1.53,1.53,0,0,1,1.54-1.53h15.2a1.53,1.53,0,0,1,1.54,1.53v15.2A1.54,1.54,0,0,1,572.72,433.09ZM559.06,430h12.12V417.89H559.06Z" fill="#2f2e41" data-secondary="true"/>
<path d="M572.72,417.89a1.54,1.54,0,0,1-1-2.69l4-3.55a1.54,1.54,0,1,1,2,2.3h0l-4.08,3.56A1.51,1.51,0,0,1,572.72,417.89Z" fill="#2f2e41" data-secondary="true"/>
<path d="M557.52,417.89a1.53,1.53,0,0,1-1.15-.52l-3.6-4.14a1.54,1.54,0,1,1,2.32-2l3.6,4.15a1.54,1.54,0,0,1-.15,2.17A1.48,1.48,0,0,1,557.52,417.89Z" fill="#2f2e41" data-secondary="true"/>
<path d="M554,436.86a1.5,1.5,0,0,1-1.06-.41,1.54,1.54,0,0,1,0-2.18h0l3.54-3.77a1.54,1.54,0,0,1,2.38,1.95l-.15.16-3.53,3.77A1.5,1.5,0,0,1,554,436.86Z" fill="#2f2e41" data-secondary="true"/>
<path d="M576.77,437a1.49,1.49,0,0,1-1.06-.43l-4-3.92a1.54,1.54,0,1,1,2.15-2.2l4,3.92a1.55,1.55,0,0,1,0,2.18,1.54,1.54,0,0,1-1.09.45Z" fill="#2f2e41" data-secondary="true"/>
<rect x="595.86" y="399.68" width="64.8" height="2.42" fill="#2f2e41" data-secondary="true"/>
<rect x="596.08" y="445.57" width="64.57" height="2.42" fill="#2f2e41" data-secondary="true"/>
<rect x="604.29" y="400.88" width="2.42" height="45.52" fill="#2f2e41" data-secondary="true"/>
<rect x="650.14" y="400.88" width="2.42" height="45.52" fill="#2f2e41" data-secondary="true"/>
<rect x="600.35" y="447.29" width="2.29" height="4.25" fill="#2f2e41" data-secondary="true"/>
<rect x="627.48" y="447.29" width="2.29" height="4.25" fill="#2f2e41" data-secondary="true"/>
<rect x="654.11" y="447.29" width="2.29" height="4.25" fill="#2f2e41" data-secondary="true"/>
<rect x="595.86" y="411.62" width="9.65" height="2.37" fill="#2f2e41" data-secondary="true"/>
<rect x="650.99" y="411.62" width="8.2" height="2.37" fill="#2f2e41" data-secondary="true"/>
<rect x="650.99" y="433.6" width="8.2" height="2.37" fill="#2f2e41" data-secondary="true"/>
<rect x="595.86" y="433.6" width="9.65" height="2.37" fill="#2f2e41" data-secondary="true"/>
<path d="M628.37,448.31h0a1.58,1.58,0,0,1-1.08-.46l-22.44-23.08a1.53,1.53,0,0,1,0-2.15l22.43-22.76a1.53,1.53,0,0,1,1.11-.46h0a1.55,1.55,0,0,1,1.09.46l23,23.57a1.55,1.55,0,0,1,0,2.17l-23,22.34A1.53,1.53,0,0,1,628.37,448.31Zm-20.29-24.62,20.32,21,20.77-20.19-20.81-21.34Z" fill="#2f2e41" data-secondary="true"/>
<path d="M636,433.09H620.79a1.54,1.54,0,0,1-1.54-1.54v-15.2a1.53,1.53,0,0,1,1.54-1.53H636a1.53,1.53,0,0,1,1.54,1.53v15.2A1.54,1.54,0,0,1,636,433.09ZM622.32,430h12.11V417.89H622.32Z" fill="#2f2e41" data-secondary="true"/>
<path d="M636,417.89a1.54,1.54,0,0,1-1-2.69l4-3.55a1.53,1.53,0,1,1,2,2.3l-4,3.56A1.49,1.49,0,0,1,636,417.89Z" fill="#2f2e41" data-secondary="true"/>
<path d="M620.79,417.89a1.54,1.54,0,0,1-1.16-.52L616,413.23a1.54,1.54,0,0,1,2.29-2l3.61,4.15a1.54,1.54,0,0,1-.15,2.17A1.48,1.48,0,0,1,620.79,417.89Z" fill="#2f2e41" data-secondary="true"/>
<path d="M617.25,436.86a1.57,1.57,0,0,1-1-.41,1.56,1.56,0,0,1-.09-2.18h0l3.54-3.77a1.54,1.54,0,0,1,2.25,2.11h0l-3.54,3.77A1.55,1.55,0,0,1,617.25,436.86Z" fill="#2f2e41" data-secondary="true"/>
<path d="M640,437a1.51,1.51,0,0,1-1.07-.43l-4-3.92a1.54,1.54,0,1,1,2-2.37,1.37,1.37,0,0,1,.17.17l4,3.92A1.54,1.54,0,0,1,640,437Z" fill="#2f2e41" data-secondary="true"/>
<g opacity="0.4">
<path d="M440.38,265.81V459.66h14.4V283.12c72.87-22.65,146.37-22.46,220.52,0V459.66h11.06V265.81C603.65,241.07,521.64,240.86,440.38,265.81Z" fill="#fff"/>
</g>
<path d="M374.56,452H755.34a6.5,6.5,0,0,1,6.51,6.51h0a6.51,6.51,0,0,1-6.51,6.51H374.56a6.51,6.51,0,0,1-6.5-6.51h0A6.5,6.5,0,0,1,374.56,452Z" fill="#bd0003" data-primary="true"/>
<g opacity="0.1">
<path d="M697.68,270.43a175,175,0,0,0-67.6-30.6c-48.88-10.91-100.93-12.05-148.3,4.17s-89.45,51.27-107.29,97.92V451.83h66.12V265.67c81.54-24.87,162.75-24.61,245.75.11V451.94h67.23V337.51C744.08,314.27,722.44,289.06,697.68,270.43Z" fill="#fff"/>
</g>
<g opacity="0.4">
<path d="M756.37,233.73H372.49a5.8,5.8,0,0,1-5.82-5.78v0h0a5.8,5.8,0,0,1,5.8-5.8h383.9a5.81,5.81,0,0,1,5.81,5.8h0A5.8,5.8,0,0,1,756.37,233.73Z" fill="#fff"/>
</g>
<g opacity="0.3">
<path d="M374.16,244V233.73H753.59v8.05s-111.28-7-124.4-6.57-151.85,0-156.24.22S374.16,244,374.16,244Z"/>
</g>
<g opacity="0.3">
<rect x="374.16" y="199.52" width="379.43" height="12.45"/>
</g>
<path d="M632.86,196.87c0,.23-31.67.4-70.77.4s-70.77-.17-70.77-.4,31.68-.4,70.77-.4S632.86,196.66,632.86,196.87Z" fill="#fff"/>
<path d="M657.5,230.52c0,.21-43.7.4-97.59.4s-97.59-.19-97.59-.4,43.68-.4,97.53-.4S657.5,230.29,657.5,230.52Z" fill="#fff"/>
<path d="M622.36,265.52a7.33,7.33,0,0,1-1.24-.11l-3.53-.43c-3.08-.41-7.53-.94-13-1.54s-12.07-1.09-19.36-1.54-15.38-.58-23.78-.54-16.48.45-23.77.93-13.85,1.15-19.34,1.81-9.94,1.25-13,1.71l-3.53.49a7.46,7.46,0,0,1-1.24.13,7.09,7.09,0,0,1,1.21-.28l3.51-.65c3.08-.55,7.48-1.24,13-2s12.06-1.41,19.35-2,15.39-.89,23.84-1,16.5.2,23.81.6,13.85,1,19.39,1.68,10,1.25,13,1.76l3.52.58A5.82,5.82,0,0,1,622.36,265.52Z" fill="#fff"/>
<path d="M602.62,289.38a4.22,4.22,0,0,1-.87,0l-2.46-.35c-2.12-.34-5.21-.77-9-1.25a245.64,245.64,0,0,0-60.1,0c-3.83.46-6.92.89-9,1.23l-2.47.34a3.17,3.17,0,0,1-.87,0,3.49,3.49,0,0,1,.84-.23l2.43-.49c2.13-.43,5.2-1,9-1.54a221.43,221.43,0,0,1,30.12-2,216.8,216.8,0,0,1,30.12,2.13c3.82.53,6.91,1.06,9,1.53l2.44.51A3.4,3.4,0,0,1,602.62,289.38Z" fill="#fff"/>
<g clip-path="url(#a857b731-0bdf-4c92-a33d-f15383b6b74a)">
<g opacity="0.3">
<path d="M558.49,336.91a24.81,24.81,0,0,1-1.09-15.57c1.32-5.13,6.32-7.19,7.46-16.24,2.23,4.84,3.62,13.67,2,18.74a13.83,13.83,0,0,0,6.47-12.46,21.22,21.22,0,0,0-5.81-13.26c-1.31-1.42-3.25-2.78-5-2a4.87,4.87,0,0,0-2.1,2.64,69,69,0,0,0-5.5,36.37"/>
</g>
</g>
<polygon points="708.99 153.12 699.07 176.69 705.45 176.69 709.87 163.98 708.99 153.12" fill="#2f2e41" data-secondary="true"/>
<polygon points="739.45 131.88 743.33 176.9 710.9 176.78 707.3 131.88 739.45 131.88" fill="#2f2e41" data-secondary="true"/>
<polygon points="736.28 135.39 739.64 172.58 715.3 172.9 712.02 135.18 736.28 135.39" fill="#fafafa"/>
<polygon points="731.11 140.55 733.02 166.13 720.05 166.13 717.76 140.55 731.11 140.55" fill="#2f2e41" data-secondary="true"/>
<path d="M99.14,305.51s10.8,11.17,16.09,36.37c0,0,5.47-18.09,22.46-17.09l-12.49-19.7-18.86-6.36Z" fill="#f9b499"/>
<path d="M131.13,314.2l4.23,7s-14.4,3-20.33-7.42Z" fill="#f7a48b"/>
<ellipse cx="118.59" cy="288.46" rx="23.05" ry="34.11" transform="translate(-169.24 168.34) rotate(-45)" fill="#f9b499"/>
<path d="M113.69,260.35s8.7-.31,21.2,11.81c0,0,2.05-37.09-31-23.27,0,0-14.83-17.86-28.31,19.21,0,0-24.51-.23-21.31,17,0,0,3.71,11.63,1.52,13.65,0,0-9.38,12.24-3.9,21.44a1.09,1.09,0,0,0,1.36.43h0a1.07,1.07,0,0,0,.53-1.42c-1-2-2.74-7.08,0-12l2.93-5.44c.29-.56.61-1.09.94-1.63.85-1.41,2.82-5.69-.33-11.3,0,0-5.4-13.32,7.24-16,0,0-6.57,8.09-.17,25.44,0,0,1,4.22-.84,5.9,0,0-14.83,21.24-3.71,33.2l4.89,5.23a5.27,5.27,0,0,1,.17,6.4s-8.59,14.15-1.52,24.43l7.08,11.46,46.06,1.5s-9.27-23.14-1.27-44.65c0,0-3.65-21.94-16.13-36.16L93.4,293a10,10,0,0,1,5.06,2.19s-3.38-7.41-.68-10.62a59.85,59.85,0,0,0,6.4-13.65S115.1,265.64,113.69,260.35Z" fill="#2f2e41" data-secondary="true"/>
<ellipse cx="93.97" cy="301.32" rx="7.52" ry="8.67" transform="matrix(0.79, -0.61, 0.61, 0.79, -163.94, 119.37)" fill="#f9b499"/>
<path d="M355.29,521.89l-8.56.85-12.84,67.64s-19.41-3.14-53.08-3.43l.86-40.24-7.71.58-.86,39.09s-40.81,0-65.63.86l-9.71-51.37-8-2.85,10.28,54.22s-24,2.57-28.26,3.42l-4,3.71,10,12.56,47.14-.56-50.11-4.69-.64-2.24s87-11.12,161-1.37l-.18,2.86,2.3-.28,10.27-6.56a15.66,15.66,0,0,0-6.85-2.86Z" fill="#2f2e41" data-secondary="true"/>
<polygon points="224.93 606.37 252.12 608.91 334.84 603.85 335.02 600.93 297.36 605.5 224.93 606.37" fill="#2f2e41" data-secondary="true"/>
<g opacity="0.2">
<path d="M355.29,521.89l-8.56.85-12.84,67.64s-19.41-3.14-53.08-3.43l.86-40.24-7.71.58-.86,39.09s-40.81,0-65.63.86l-9.71-51.37-8-2.85,10.28,54.22s-24,2.57-28.26,3.42l-4,3.71,10,12.56,47.14-.56-50.11-4.69-.64-2.24s87-11.12,161-1.37l-.18,2.86,2.3-.28,10.27-6.56a15.66,15.66,0,0,0-6.85-2.86Z" fill="#231f20"/>
<polygon points="224.93 606.37 252.12 608.91 334.84 603.85 335.02 600.93 297.36 605.5 224.93 606.37" fill="#231f20"/>
</g>
<path d="M177.8,527.27s30.81,27.15,60.2,16.59l.29-8-41.45-6.66Z" fill="#2f2e41" data-secondary="true"/>
<path d="M613.62,601c-4.38,9.44-29.66,2.36-29.66,2.36a63.67,63.67,0,0,0-21.91-1.69,76.14,76.14,0,0,1-28.65.68c-2.83-1.41-1.39-11.48-.27-17.4a7,7,0,0,0-2.82-7c-46.17-33-70-57.41-77-65.19,7.68-4.91,21.41-14.35,29.42-25l45,55.89c9.78,13.48,31.34,29.65,31.34,29.65,11.8,8.43,41.46,18.21,41.46,18.21C616.65,598,613.62,601,613.62,601Z" fill="#f9b499"/>
<path d="M399.94,483.74,395.55,541s-3.37,22.92-8.08,35.05c0,0-11.13,30,12.13,23.93,0,0,13.48-4,25.28-.34,0,0,13.14,7.42,38.76,1.69,0,0,5.84-.49,4.49-4.36a4.88,4.88,0,0,0-3.07-2.93l-27.48-9.46a22,22,0,0,1-4.71-2.27c-4.25-2.72-12.86-8.81-16.14-15.53a9.82,9.82,0,0,1-.53-7.09l19.46-65.2-12.81-31Z" fill="#f9b499"/>
<path d="M219,379.15s98.77,10.49,147.73,46.33l-57.26,22.73L193.64,401Z" fill="#bd0003" data-primary="true"/>
<path d="M219,379.15s98.77,10.49,147.73,46.33l-57.26,22.73L193.64,401Z" fill="#231f20" opacity="0.2"/>
<path d="M451,436.69s11.56-31.7-32.52-28.62c-1.23.08-2.45.23-3.67.42L296,427.46,445.2,452.83Z" fill="#2f2e41" data-secondary="true"/>
<path d="M451,436.69s11.56-31.7-32.52-28.62c-1.23.08-2.45.23-3.67.42L296,427.46,445.2,452.83Z" fill="#231f20" opacity="0.2"/>
<path d="M489.72,476.94a5.8,5.8,0,0,1,1,5.78,37.73,37.73,0,0,1-5.12,8.84c-8,10.63-21.35,20-29,24.95-1,.64-1.91,1.2-2.7,1.69a4.73,4.73,0,0,1-5.92-.82c-8-8.54-16.48-20.88-20.43-26.85A7.67,7.67,0,0,0,421,487.1l-60.32,2.3c-6.6-9.54-22.06-19.42-28.21-23.12a37,37,0,0,0-5-2.51c-35-14.37-73.61-26.81-73.61-26.81l.64-8.73,8.85-.77,6.83-4.72C289.7,430.32,436,433.61,436,433.61c17.3-.39,28.83,13.07,28.83,13.07Z" fill="#2f2e41" data-secondary="true"/>
<path d="M64.43,430.56S41,405.81,63.15,387.47c0,0,12.49-13.4,53.39-1.15,0,0,51.11,16.3,68,43.28a377.42,377.42,0,0,1,66.7,7.79,2.6,2.6,0,0,0,2.65-.43s50.92,16.73,76,27.8c0,0,22.45,12.38,30.81,24.64l33.2-1.95s-14.16,36.4-75.33,50.05c0,0-68.92,23.43-118.13-7.24,0,0-50.22-10.79-79.54-34.72,0,0-25.95-17.19-39.77-41.46Z" fill="#bd0003" data-primary="true"/>
<path d="M393.87,487.45a43.09,43.09,0,0,1-4.26,7.58c-7.71,11.41-27.42,32.73-71.07,42.47,0,0-68.92,23.43-118.13-7.24,0,0-50.22-10.79-79.54-34.72,0,0-25.95-17.19-39.77-41.45L64.43,430.55S41,405.81,63.15,387.47c0,0,12.49-13.4,53.39-1.15,0,0,51.1,16.3,68,43.28a377.42,377.42,0,0,1,66.7,7.79,2.6,2.6,0,0,0,2.65-.43s50.92,16.73,76,27.8c0,0,22.06,12.33,30.42,24.6l16.4-1.72Z" fill="#231f20" opacity="0.2"/>
<path d="M296,490.9a12.46,12.46,0,0,0,1-1.69c.29-.57.56-1.14.82-1.72s.52-1.17.81-1.76c.13-.3.29-.6.44-.9a7.35,7.35,0,0,1,.52-.89,7.24,7.24,0,0,1,0,1c0,.34-.06.69-.12,1a8.2,8.2,0,0,1-.62,2,6.86,6.86,0,0,1-1.13,1.76A3.61,3.61,0,0,1,296,490.9Z" fill="#2f2e41" data-secondary="true"/>
<path d="M86,445.87a38.82,38.82,0,0,1-3.13-5.07,50.82,50.82,0,0,1-2.46-5.42,42.32,42.32,0,0,1-1.73-5.72,25.84,25.84,0,0,1-.62-5.94c.44,1.95.94,3.83,1.51,5.7s1.24,3.71,1.94,5.54,1.44,3.64,2.19,5.45Z" fill="#2f2e41" data-secondary="true"/>
<path d="M134.92,457.15c.39,1.53.55,3,.78,4.44.12.72.21,1.44.35,2.15s.31,1.42.54,2.18a4.74,4.74,0,0,1-1.41-1.9,8.59,8.59,0,0,1-.65-2.26,10.67,10.67,0,0,1-.08-2.33A7.54,7.54,0,0,1,134.92,457.15Z" fill="#2f2e41" data-secondary="true"/>
<path d="M295.24,366.55s35.16.48,41.9,0v5.05s7.95-.72,5.78,15.9c0,0-1.68,12.52-9.87,18.3,0,0,.48,7.7-7.71,8.18l-13.48-.24L295.8,384.68Z" fill="#bd0003" data-primary="true"/>
<path d="M335.84,396.14a1.45,1.45,0,0,1-1.31-1.57c.45-2.43.84-5.1,1.09-8,.21-2.44.29-4.73.29-6.86a1.52,1.52,0,0,1,.52-1,1.42,1.42,0,0,1,1.05-.32,1.45,1.45,0,0,1,1.31,1.57,48.56,48.56,0,0,1-1.38,14.87A1.65,1.65,0,0,1,335.84,396.14Z" fill="#231f20" opacity="0.2"/>
<path d="M320,364.17a3.19,3.19,0,0,0,0-3.26,4.55,4.55,0,0,0-1.38-1.55c-.92-.69-2.44-2.57,0-6.58,0,0,3.63-5-4.83-8.64a45.64,45.64,0,0,0-12.61-2.07s-17.61,0-14-15.54c0,0,1.76-7,13.57-12.78a20.57,20.57,0,0,1,2.42-1c2.85-1,11.14-4.2,12.54-8a.16.16,0,0,1,.3,0c.37,1.3.8,5.26-4.49,11.79,0,0-7.59,7.25-.51,14l11,7.95s11.22,5,5,17.09C327.09,355.54,323.12,364.52,320,364.17Z" fill="#bd0003" data-primary="true"/>
<path d="M320,364.17a3.19,3.19,0,0,0,0-3.26,4.55,4.55,0,0,0-1.38-1.55c-.92-.69-2.44-2.57,0-6.58,0,0,3.63-5-4.83-8.64a45.64,45.64,0,0,0-12.61-2.07s-17.61,0-14-15.54c0,0,1.76-7,13.57-12.78a20.57,20.57,0,0,1,2.42-1c2.85-1,11.14-4.2,12.54-8a.16.16,0,0,1,.3,0c.37,1.3.8,5.26-4.49,11.79,0,0-7.59,7.25-.51,14l11,7.95s11.22,5,5,17.09C327.09,355.54,323.12,364.52,320,364.17Z" fill="#fff" opacity="0.5"/>
<path d="M267.82,402.18s9.75-3.6,13.85-10.21c0,0,6.61-15.27,14.13-14.35v7.06s18,2.5,27.79-4.56c0,0,4.78-6.15,6.83-.45a7.28,7.28,0,0,1-.45,4.78s4.1,1.6.23,7.06c0,0,2.5,2.51-.69,7.29,0,0,1.83,8.43-3.41,10.94,0,0-12.66,9-33.19,2.88a4.93,4.93,0,0,0-3.71.35l-21.05,11.12Z" fill="#f9b499"/>
<path d="M137.69,324.79s-22.07-3.7-25.73,32c0,0-.61,17.07,4.58,29.57,0,0,53,18.32,68,43.28,0,0,41.58,2.38,66.57,7.84a2.91,2.91,0,0,0,2.78-.48c1.2-1.21,4.49-2.4,10.45-3.3a6.44,6.44,0,0,0,3.33-1.51c1.6-1.43,3.31-4.21,2.54-9.41l-2,1.35-.33-21.91s-4.22-1.35-14-1.52c0,0-26.79-18.2-33.87-25.27a15.29,15.29,0,0,1-5.06-7.59s-2.19-23.59-30.33-22.41a37.82,37.82,0,0,1-19.74-5.54,24.24,24.24,0,0,1-3.63-2.91C158,333.91,148.5,325.71,137.69,324.79Z" fill="#bd0003" data-primary="true"/>
<path d="M155,341.35a93,93,0,0,1,10.41,10.5,139,139,0,0,1,9.06,11.71c1.43,2,2.76,4.1,4.11,6.16s2.62,4.19,3.81,6.37l.91,1.61.46.81c.13.23.29.48.46.72a16.65,16.65,0,0,0,2.41,2.63,28,28,0,0,0,6,4l-.1,0a9.3,9.3,0,0,1,2.82,1.5,9.31,9.31,0,0,1,3.37,5.26,10.36,10.36,0,0,1,.26,1.56c.05.52,0,1.05.05,1.58a14.56,14.56,0,0,0,.07,2.88,6.36,6.36,0,0,0,.81,2.58,2.24,2.24,0,0,0,2,1.12,6.09,6.09,0,0,0,2.59-.78l-.13.1a7.9,7.9,0,0,1,2.26-1.44,3.82,3.82,0,0,1,2.81-.15,3.47,3.47,0,0,1,1.23.81,5.79,5.79,0,0,1,.81,1.12,10.59,10.59,0,0,1,.88,2.47v.16a4.71,4.71,0,0,0,.37,2.2,1.27,1.27,0,0,0,1.56.69,6.6,6.6,0,0,0,2.09-1,21.46,21.46,0,0,0,1.94-1.54l-.13.2a4.2,4.2,0,0,1,3.18-2.32,8.1,8.1,0,0,1,3.77.39,18.84,18.84,0,0,1,3.34,1.56c1.06.6,2,1.31,3,2l0,0a9.64,9.64,0,0,0,3.24,1,15,15,0,0,0,3.48.08,23,23,0,0,0,6.78-1.73l13.1-5.58-6.45,3-6.47,3a22.87,22.87,0,0,1-6.91,1.94,16.23,16.23,0,0,1-3.62,0,10.25,10.25,0,0,1-3.55-1h0a35.26,35.26,0,0,0-3-1.91,17.58,17.58,0,0,0-3.2-1.43,7.28,7.28,0,0,0-3.32-.3,3.58,3.58,0,0,0-1.46.61,3.06,3.06,0,0,0-1,1.13l-.06.13-.07.06a21.74,21.74,0,0,1-2,1.63,7.3,7.3,0,0,1-2.46,1.18,2.53,2.53,0,0,1-1.55-.11,2.28,2.28,0,0,1-1.14-1.11,5.6,5.6,0,0,1-.5-2.76v.16a9.2,9.2,0,0,0-.79-2.19,3,3,0,0,0-1.47-1.43,2.78,2.78,0,0,0-2,.15,6.81,6.81,0,0,0-1.9,1.23l-.07.06-.06,0a7.28,7.28,0,0,1-3.1.92,3.41,3.41,0,0,1-1.72-.41A3.54,3.54,0,0,1,199,401.8a7.53,7.53,0,0,1-1-3.06,14.65,14.65,0,0,1-.06-3.1,9.5,9.5,0,0,0-1.33-5.38,8.36,8.36,0,0,0-4.3-3.39l-.08,0h0a29,29,0,0,1-6.24-4.18,17.64,17.64,0,0,1-2.55-2.83,7.55,7.55,0,0,1-.53-.84l-.45-.8-.9-1.6c-1.17-2.16-2.45-4.26-3.69-6.38s-2.6-4.17-4-6.2c-2.73-4.08-5.67-8-8.77-11.85A100.64,100.64,0,0,0,155,341.35Z" fill="#231f20" opacity="0.2"/>
<path d="M122.39,348.17a15.08,15.08,0,0,1,3-4.59c.31-.33.63-.67,1-1l1-.91a20.24,20.24,0,0,1,2.31-1.55l.6-.34.63-.29c.43-.19.84-.41,1.28-.56a16.88,16.88,0,0,1,2.68-.73,10.15,10.15,0,0,1,1.36-.22l1.37-.09a8.92,8.92,0,0,1,1.37,0c.46,0,.91.07,1.36.12l-1.34.21a10,10,0,0,0-1.33.21,24.85,24.85,0,0,0-2.58.62,21.38,21.38,0,0,0-4.82,2,23.32,23.32,0,0,0-4.26,3.08A28.24,28.24,0,0,0,122.39,348.17Z" fill="#231f20" opacity="0.2"/>
<path d="M381,505.65s-18.71,8.09-35.14,10.37c0,0,7.58-10.37,9.86-13.91l-6.83-5.31-6.57,6.32s-1.26,6.07-10.11,14.41c0,0-82.57,11-150-1.09,0,0-17.53-16.18-20.22-36.07l-14.33-.5s9.36,22.24,20,35.39c0,0-20.73-2.53-32.86-10.37,0,0-8.59,8.34,8.85,15.68l20,72s-11.44,1.83-5.59,9.18c.42.54.82,1.09,1.25,1.62,1.32,1.65,10.95,7.47,80.93,7.9,0,0,108.69,2.53,112.49-14.41l20-77.09S383.76,515.26,381,505.65Zm-206.8,93.79-21.77-76.75c15.75,6,66.15,7.73,66.15,7.73l12.32,72.74C204.53,604.88,174.18,599.44,174.18,599.44Zm65.57,3.72L228,531c20.33,3.43,89.06-1.15,89.06-1.15-26.63,17.76-61.85,16-61.85,16,47.25,9.16,69-11.17,69-11.17l-10.88,66.44C290.15,605.74,239.75,603.16,239.75,603.16Zm104.35-8.61c-3.25,3.66-21.74,6.1-21.74,6.1l11.58-72.95,29.67-5.28Z" fill="#2f2e41" data-secondary="true"/>
<path d="M181.72,528.61s-1.14,2.9-2.53,1.64c0,0-1.27-1-.88-5.31,0,0,.88-8.59,6.19-9.6,0,0,1.26-.38,1.14,1.39,0,0,2.63-1.42,2.73.36a1.74,1.74,0,0,1-.42,1.17c-1.13,1.38-4.59,6.2-2.57,11.1,0,0,.78,1.56-.17,2.36a1.36,1.36,0,0,1-1.89-.23A9.24,9.24,0,0,1,181.72,528.61Z" fill="#bd0003" data-primary="true"/>
<path d="M393.87,487.45a43.09,43.09,0,0,1-4.26,7.58c-19.59,7-47.31,8.09-47.31,8.09-85.94,7.59-193.82-20.88-193.82-20.88S102.41,469,81.1,454.09s-16.67-23.54-16.67-23.54c25.47,25.51,96.88,42.24,96.88,42.24,107.18,25.78,179,16.93,193.38,16.93a174.74,174.74,0,0,0,22-2.08Z" fill="#2f2e41" data-secondary="true"/>
<path d="M393.87,487.45a43.09,43.09,0,0,1-4.26,7.58c-19.59,7-47.31,8.09-47.31,8.09-85.94,7.59-193.82-20.88-193.82-20.88S102.41,469,81.1,454.09s-16.67-23.54-16.67-23.54c25.47,25.51,96.88,42.24,96.88,42.24,107.18,25.78,179,16.93,193.38,16.93a174.74,174.74,0,0,0,22-2.08Z" fill="#231f20" opacity="0.2"/>
<path d="M159.69,470.43s.78-5.05-4.88-1.52c0,0-10.95,6.66-9.78,12.86a1.46,1.46,0,0,0,2.59.72,7.29,7.29,0,0,0,.43-.62s.26,3.89,2.08,1.95a3.21,3.21,0,0,0,.73-1.42,12.4,12.4,0,0,1,9.82-9.07,2.85,2.85,0,0,0,2.16-1.92C163.15,470.41,162.8,469.5,159.69,470.43Z" fill="#bd0003" data-primary="true"/>
<path d="M350.13,488.2a3.28,3.28,0,0,0-2.75-1.14,1.7,1.7,0,0,0-.45,3.28,6.2,6.2,0,0,0,.77.19,7.79,7.79,0,0,1,4.35,2.22c1.72,1.79,3.28,4.95,2,10.23,0,0,1.4,2.95,2.79-.5,0,0,3,4.44,3.72-3.69,0,0,.71-6.68-6.5-11.47C354.09,487.32,350.36,484.75,350.13,488.2Z" fill="#bd0003" data-primary="true"/>
<path d="M333.36,517.92a6.18,6.18,0,0,0-.67-1.2,1.7,1.7,0,0,0-3,.66c-.52,2.16-1.73,6.36-3.72,8.35-2.74,2.75-1.68,3.17-1.68,3.17,2.95,3.59,7.59-7.81,7.59-7.81a18.28,18.28,0,0,1,1.75,8,1,1,0,0,0,1.43,1c.6-.31,1.19-1.07,1.35-2.84a9.24,9.24,0,0,0-.89-4.71Z" fill="#bd0003" data-primary="true"/>
<path d="M369.88,510.11s-4.43-1.27-4.43.85c0,0-1.06,1.47,2.74,1.47,0,0,3.52,1,4.35,6.63a1.21,1.21,0,0,0,1,1c1,.16,2.57-.11,2.81-3.13a9.35,9.35,0,0,0-1.29-5.36C373.68,509.21,371.41,506.35,369.88,510.11Z" fill="#bd0003" data-primary="true"/>
<path d="M221,525.58s3.12,8.07,8.09,7.28a.54.54,0,0,0,.39-.28c.23-.45.39-1.47-1.91-2.58,0,0-4.83-5.36-3.62-8.71,0,0,0-2.36-1.78-2.19a2,2,0,0,0-1.45.92c-1.48,2.26-6.23,10.17-2,12.8,0,0,2,.54,2-2.82C220.7,530,220.16,528.93,221,525.58Z" fill="#bd0003" data-primary="true"/>
<ellipse cx="316.36" cy="366.33" rx="21.12" ry="1.98" fill="#e6e7e8"/>
<g id="ae2a46ba-a1a2-4836-97b9-6bd658544b51" data-name="freepik--Plant--inject-2">
<path d="M761.66,396.32a304.73,304.73,0,0,1,.49-32.27,410.31,410.31,0,0,1,10.12-65.76c2.82-12.18,6.29-24.13,9.91-36.09.11-.36.68-.25.57.12-11.18,42.13-20.36,85.61-19.73,129.4.18,12.26,1.61,24.3,2.75,36.47,0,.33-.51.46-.58.13A182,182,0,0,1,761.66,396.32Z" fill="#bd0003" data-primary="true"/>
<path d="M782.77,262.32s17,43,13.16,53.14-11.62,12.27-11.62,12.27,10.37,14.8,3.12,28.68-23.37,13.24-24.41,29C763,385.4,762.06,319.55,782.77,262.32Z" fill="#bd0003" data-primary="true"/>
<path d="M764.79,358.21a.31.31,0,0,1,0-.23,395.07,395.07,0,0,1,16.49-86.59c0-.08.17,0,.14,0q-5.07,18.94-8.93,38a18.65,18.65,0,0,1,8.09-4.51s.09.07,0,.09a21.38,21.38,0,0,0-8.35,5.58c-.5,2.5-1,5-1.38,7.49,3.8-4.24,9-6.34,14.3-8.33m0,.11c-5.5,2.24-11,5.1-14.63,9.82q-2,10.69-3.41,21.49a20.46,20.46,0,0,1,10.16-5.79c.12,0,.19.15.07.18a21.25,21.25,0,0,0-10.25,6.57h0q-.51,3.79-1,7.6a25.8,25.8,0,0,1,7-4.24c.07,0,.11.09,0,.11a24.38,24.38,0,0,0-7.09,4.69H766c-.27,2.41-.56,4.83-.81,7.23a34.48,34.48,0,0,1,14.37-10.25c.11,0,.18.12.07.16a37.6,37.6,0,0,0-14.17,10.9.27.27,0,0,1-.35.11q-.55,5.56-1,11.13c-.41,5.57-.09,0-.08,0,.19-3.75.46-7.56.77-11.35Z" fill="#2f2e41" data-secondary="true"/>
<path d="M778.41,300.64a21.07,21.07,0,0,1,10.19-3.17.06.06,0,1,1,0,.12,40,40,0,0,0-10.06,3.3.15.15,0,0,1-.19-.06A.14.14,0,0,1,778.41,300.64Z" fill="#2f2e41" data-secondary="true"/>
<path d="M776.35,346.19a21.22,21.22,0,0,1,7.64-2.62.08.08,0,0,1,.07.07.07.07,0,0,1-.07.07,29,29,0,0,0-7.56,2.65C776.34,346.42,776.25,346.24,776.35,346.19Z" fill="#2f2e41" data-secondary="true"/>
<path d="M725.05,319.94a115.79,115.79,0,0,1,18.34,18.49,70.57,70.57,0,0,1,12,24.29,174.27,174.27,0,0,1,6.12,56.35,135.37,135.37,0,0,1-5.3,31.07.3.3,0,0,1-.4.15.3.3,0,0,1-.18-.3,176.1,176.1,0,0,0,3.75-54.64c-1.64-18-4.79-37.61-15-52.79-5.58-8.25-12.78-15.05-19.89-22C724.14,320.14,724.69,319.62,725.05,319.94Z" fill="#bd0003" data-primary="true"/>
<path d="M760,406.19A105.11,105.11,0,0,0,747.06,387c-7.83-9.09-14.51-15.61-15.2-21.28s9.18-9.09,9.18-9.09-11.87,1.22-14.62-3.93-2.31-33.7-2.31-33.7,20.18,16.74,28.42,38.79S760,406.19,760,406.19Z" fill="#bd0003" data-primary="true"/>
<path d="M730.87,326.78c8.25,9.46,16.65,19.49,21.07,31.43a118.57,118.57,0,0,1,3.81,12.6h0c.2.86.42,1.72.62,2.59a.33.33,0,0,1,0,.14,243.32,243.32,0,0,1,4.12,26.73s-.08.06-.08,0c-.59-4.51-1.28-9.06-2.09-13.61h-.12a18.85,18.85,0,0,0-5.5-1.83c-.13,0-.1-.23,0-.22a20.1,20.1,0,0,1,5.5,1.38c-.73-4.13-1.56-8.25-2.53-12.26a60.08,60.08,0,0,0-12.51-2.59m0-.06a48,48,0,0,1,12.37,2c-.18-.69-.36-1.37-.52-2.07a63.33,63.33,0,0,0-8.25-2.05v-.09a41.24,41.24,0,0,1,8.15,1.6c-.91-3.51-1.91-7-3.06-10.38a62.56,62.56,0,0,0-3.44-8.09,50.3,50.3,0,0,0-6.73-1.72v-.11a18.2,18.2,0,0,1,6.32,1.1,62.87,62.87,0,0,0-3.16-5.5h0c-4.7-1.37-9.47-2.75-14.42-2.18a.08.08,0,0,1,0-.11s0,0,0,0c4.74-.88,9.29.16,13.85,1.37-.45-.71-.92-1.37-1.37-2.12a32.24,32.24,0,0,0-8.82-2s-.07-.1,0-.1a23.16,23.16,0,0,1,8.24,1.37c-3.59-5.19-7.6-10.11-11.58-15-.2-.22-.06-.34.13-.11Z" fill="#2f2e41" data-secondary="true"/>
<path d="M729.69,346.19a18.89,18.89,0,0,1,4.25.16c.16,0,.14.3,0,.3-1.38-.07-2.75-.27-4.21-.3a.09.09,0,0,1-.1-.06A.08.08,0,0,1,729.69,346.19Z" fill="#2f2e41" data-secondary="true"/>
<path d="M743,374.9a19.1,19.1,0,0,1,6.46,1.8v.09c-2.13-.67-4.3-1-6.46-1.56a.17.17,0,0,1-.16-.17A.16.16,0,0,1,743,374.9Z" fill="#2f2e41" data-secondary="true"/>
<path d="M748.29,365.7a14.81,14.81,0,0,1,2.74.47c.1,0,0,.16,0,.16a14.07,14.07,0,0,1-2.74-.34.15.15,0,0,1-.1-.19A.14.14,0,0,1,748.29,365.7Z" fill="#2f2e41" data-secondary="true"/>
<path d="M814.52,340.83a97.09,97.09,0,0,0-18.7,11.46,59.36,59.36,0,0,0-14.7,17.42,146.78,146.78,0,0,0-16.37,44.86A114.09,114.09,0,0,0,762.84,441a.25.25,0,0,0,.25.25.25.25,0,0,0,.25-.25,148.23,148.23,0,0,1,8-45.47c4.93-14.35,11.45-29.79,22.88-40.19,6.21-5.66,13.47-9.72,20.62-14A.33.33,0,1,0,814.52,340.83Z" fill="#bd0003" data-primary="true"/>
<path d="M768.63,404.29a88.76,88.76,0,0,1,14.44-13.15c8.25-5.84,15-9.84,16.71-14.33s-5.67-9.28-5.67-9.28,9.44,3.41,12.79-.22,8.66-27.09,8.66-27.09-19.86,9.62-31.11,26S768.63,404.29,768.63,404.29Z" fill="#bd0003" data-primary="true"/>
<path d="M769.19,399.51c8.25-20.55,20-39.62,37.68-53.3h0a95.24,95.24,0,0,0-12.63,12.37,22,22,0,0,1,11.37,1.12c.08,0,0,.13,0,.12a30.5,30.5,0,0,0-11.65-.67h-.13c-.6.7-1.19,1.37-1.78,2.15a34.72,34.72,0,0,1,6,.13v.08a31.77,31.77,0,0,0-6.32.18,131.88,131.88,0,0,0-8.54,12.15,10,10,0,0,1,4.12-.17c.1,0,.1.17,0,.17a22.69,22.69,0,0,0-4.43.42c-.5.79-1,1.57-1.46,2.35a40.85,40.85,0,0,1,12.68-.16m0,.11a50.33,50.33,0,0,0-13,.58c-.45.75-.87,1.54-1.31,2.29a27.35,27.35,0,0,1,7.56,0,.09.09,0,0,1,.05.11.1.1,0,0,1-.05,0,28.65,28.65,0,0,0-7.79.25c-1.9,3.31-3.67,6.68-5.37,10.07a7.08,7.08,0,0,1,3.3-.16v.09a15.1,15.1,0,0,0-3.54.55q-2.29,4.62-4.37,9.27c-.13.27-.62.14-.45-.14Z" fill="#2f2e41" data-secondary="true"/>
<path d="M783.5,381.64a16,16,0,0,1,6.09.07m0,.1a46.82,46.82,0,0,0-6,0,.11.11,0,0,1-.07-.14l0,0Z" fill="#2f2e41" data-secondary="true"/>
<path d="M798.92,356a10.55,10.55,0,0,1,2.75-.15.1.1,0,0,1,.05.12.1.1,0,0,1-.05.06c-.93,0-1.82.13-2.75.2a.12.12,0,0,1-.08-.16A.11.11,0,0,1,798.92,356Z" fill="#2f2e41" data-secondary="true"/>
<polygon points="741.4 485.32 788.35 485.32 781.65 429.53 779.94 415.22 749.81 415.22 748.09 429.53 741.4 485.32" fill="#2f2e41" data-secondary="true"/>
<polygon points="748.09 429.53 781.65 429.53 779.94 415.22 749.81 415.22 748.09 429.53" fill="#231f20" opacity="0.3"/>
<rect x="745.5" y="410.26" width="38.76" height="12.12" fill="#2f2e41" data-secondary="true"/>
</g>
</svg>